<?xml version="1.0" encoding="utf-8"?>
<!-- Generator: Adobe Illustrator 23.1.1, SVG Export Plug-In . SVG Version: 6.00 Build 0)  -->
<svg version="1.1" id="Livello_1" xmlns="http://www.w3.org/2000/svg" xmlns:xlink="http://www.w3.org/1999/xlink" x="0px" y="0px"
	 viewBox="0 0 1190.6 1190.6" style="enable-background:new 0 0 1190.6 1190.6;" xml:space="preserve">
<style type="text/css">
	.st0{fill:none;stroke:#7C7C7B;strokeWidth:21;strokeLinecap:round;strokeLinejoin:round;}
	.st1{fill:#7C7C7B;}
</style>
<g>
	<polyline class="st0" points="587.4,622.7 587.4,992.9 477.4,992.9 689.5,992.9 587.3,992.9 	"/>
	<g>
		<path class="st1" d="M759.5,461.8c-3,14.5-7.7,28.4-14.2,41.5c-9.4,19.1-22.1,36-37.9,50.3c-32,29-74.2,45-118.9,45
			c-44.8,0-87.1-16-119.1-45c-15.7-14.3-28.5-31.2-37.8-50.3c-6.4-13.1-11.1-27-14.1-41.5H759.5 M783.6,440.8H393.4
			c7.7,103.9,92.1,178.8,195,178.8C691.2,619.6,775.6,544.7,783.6,440.8L783.6,440.8z"/>
	</g>
	<polyline class="st0" points="587.4,622.7 587.4,992.9 477.4,992.9 689.5,992.9 587.3,992.9 	"/>
	<g>
		<path class="st1" d="M442.6,220.1L442.6,220.1L442.6,220.1 M732.3,221.5l31,203.7c0,4.5-0.2,9.3-0.6,13.2c0,0,0,0.1,0,0.1
			c-3.5,43.5-23.1,83.8-55.4,113.5c-32.4,29.9-74.6,46.4-118.8,46.4c-44.4,0-86.7-16.3-119-46c-32.2-29.6-51.8-69.8-55.1-113.2
			c0-0.1,0-0.2,0-0.2c-0.3-3.6-0.5-8.8-0.6-13.6l28.6-203.9H732.3 M736.5,200.5H441c-9.6,0-17.8,7.1-19.2,16.7l-29,206.4
			c0,0.3-0.1,0.6-0.1,0.9c0,5.1,0.2,11.5,0.7,16.4c7.7,100.7,92.1,178.6,195,178.6c102.7,0,187.1-78.7,195.1-179.2
			c0.4-5,0.7-10.8,0.7-16c0-0.3,0-0.7-0.1-1l-31.8-209C751.2,206.3,744.4,200.5,736.5,200.5L736.5,200.5z"/>
	</g>
	<g>
		<path class="st1" d="M759.5,461.8c-3,14.5-7.7,28.4-14.2,41.5c-9.4,19.1-22.1,36-37.9,50.3c-32,29-74.2,45-118.9,45
			c-44.8,0-87.1-16-119.1-45c-15.7-14.3-28.5-31.2-37.8-50.3c-6.4-13.1-11.1-27-14.1-41.5H759.5 M783.6,440.8H393.4
			c7.7,103.9,92.1,178.8,195,178.8C691.2,619.6,775.6,544.7,783.6,440.8L783.6,440.8z"/>
	</g>
</g>
</svg>
