<?xml version="1.0" encoding="utf-8"?>
<!-- Generator: Adobe Illustrator 23.1.1, SVG Export Plug-In . SVG Version: 6.00 Build 0)  -->
<svg version="1.1" id="Layer_1" xmlns="http://www.w3.org/2000/svg" xmlns:xlink="http://www.w3.org/1999/xlink" x="0px" y="0px"
	 viewBox="0 0 512 512" style="enable-background:new 0 0 512 512;" xml:space="preserve">
<style type="text/css">
	.st0{fill:#7C7C7B;}
	.st1{fill:none;stroke:#7C7C7B;strokeWidth:13.5198;stroke-miterlimit:10;}
	.st2{fill:none;stroke:#7C7C7B;strokeWidth:12;stroke-miterlimit:10;}
	.st3{fill:none;stroke:#7C7C7B;strokeWidth:8;stroke-miterlimit:10;}
	.st4{fill:none;stroke:#7C7C7B;strokeWidth:13;strokeLinecap:round;strokeLinejoin:round;stroke-miterlimit:10;}
</style>
<g>
	<path class="st0" d="M70.9,451.2C71,451.3,71.1,451.4,70.9,451.2L70.9,451.2z"/>
	<path class="st0" d="M70.9,451.2C70.8,451.1,70.8,451,70.9,451.2L70.9,451.2z"/>
</g>
<g>
	<path class="st0" d="M-127.5,228.4c14.2,0,27.8-12.2,27.8-41.1c0-29-27.8-52.4-27.8-52.4s-27.8,23.5-27.8,52.4
		S-141.7,228.4-127.5,228.4z"/>
	<path class="st0" d="M-127.5,137c0,0-9.6,67.5,11.2,115.9"/>
	<path class="st0" d="M-127.5,208.2c0,0,12.3-2.7,14.2-17.8"/>
	<path class="st0" d="M-142.2,187.5c0,0,4.4,12.5,12.2,13.6"/>
	<path class="st0" d="M-127.5,181c0,0,4.9,1.1,8.6-11.8"/>
</g>
<ellipse class="st1" cx="254.6" cy="77.5" rx="135.3" ry="31.7"/>
<path class="st1" d="M389.9,451.1c0,17.5-60.6,31.7-135.3,31.7s-135.3-14.2-135.3-31.7"/>
<path class="st2" d="M120.7,456.4c0,0-77.1-180.7-1.4-380.7"/>
<path class="st2" d="M387.9,456.4c0,0,77.1-180.7,1.4-380.7"/>
<ellipse class="st3" cx="312.6" cy="75.7" rx="18.9" ry="7"/>
<path class="st4" d="M422.4,206.5c0,17.5-75.3,31.7-168.2,31.7S86,224.1,86,206.5"/>
<path class="st4" d="M422.4,315.9c0,17.5-75.3,31.7-168.2,31.7S86,333.5,86,315.9"/>
</svg>
