<?xml version="1.0" encoding="utf-8"?>
<!-- Generator: Adobe Illustrator 28.1.0, SVG Export Plug-In . SVG Version: 6.00 Build 0)  -->
<svg version="1.1" id="Layer_1" xmlns="http://www.w3.org/2000/svg" xmlns:xlink="http://www.w3.org/1999/xlink" x="0px" y="0px"
	 viewBox="0 0 512 512" style="enable-background:new 0 0 512 512;" xml:space="preserve">
<style type="text/css">
	.st0{fill:#7C7C7B;}
</style>
<g>
	<path class="st0" d="M70.9,451.2C71,451.3,71.1,451.4,70.9,451.2L70.9,451.2z"/>
	<path class="st0" d="M70.9,451.2C70.8,451.1,70.8,451,70.9,451.2L70.9,451.2z"/>
</g>
<g>
	<path class="st0" d="M389.8,451.2C389.6,451.4,389.7,451.3,389.8,451.2L389.8,451.2z"/>
	<path class="st0" d="M389.8,451.2C389.9,451,389.9,451.1,389.8,451.2L389.8,451.2z"/>
	<path class="st0" d="M240.2,474.3c-0.3,1.4,0.8,2.7,2.2,2.7c4,0,8.2,0.1,12.4,0.1c79.2,0,117.9-7.3,133.4-25.6
		c0.1-0.2,0.2-0.3,0.3-0.5c19-38.6,32-83.8,37-132.2c3.7-35.7,3.6-73.7-0.2-113.2c-0.4-3.1-2.9-5.4-6-5.4h-0.6
		c-3.3,0.3-5.7,3.2-5.4,6.5c0.7,6.4,1.1,12.8,1.6,19.2c0.1,0.8-0.3,1.5-0.9,2c-2.5,1.9-8.4,5.1-22.3,8.7c-1.4,0.4-2.8-0.7-2.8-2.1
		c-2.8-49.2-11-87-14.9-102.9c-0.3-1.2,0.4-2.4,1.6-2.7c5.8-1.6,11.4-3.6,16.9-6c1.2-0.5,2.4-1.1,3.5-1.7c1.3-0.7,2.9,0,3.3,1.5
		c2.4,10.4,4.8,22,7.1,34.7c0.6,3.1,3.6,5.2,6.7,4.7c3.3-0.5,5.6-3.5,5.1-6.8c-8.4-47.1-19.4-80.1-21.4-86.2c0-0.1-0.1-0.2-0.1-0.4
		c-1.2-10.6-15.8-18.7-44.4-24.8c-24.5-5.3-56.4-8.2-90.6-8.6c-2.7,0-5,2-5.3,4.7c-0.1,0.5-0.1,1-0.2,1.4c-0.3,3.1,2.1,5.8,5.2,5.8
		c33.4,0.3,64.6,3.3,88.4,8.3c32.8,7,34.9,14.4,34.9,14.5s-2,7.5-34.9,14.5c-25.2,5.4-58.7,8.3-94.5,8.3c-0.4,0-0.7,0-1.1,0
		c0,1.7,0.4,4.6,0.9,7.2c0.6,2.8,3,4.8,5.9,4.8c34.4-0.3,66.6-3.4,91.2-8.6c15.2-3.2,26.5-7.1,33.9-11.5c1.2-0.8,2.9-0.1,3.3,1.3
		c1.6,5.2,3.4,11.7,5.4,19.5c0.2,0.8,0,1.6-0.6,2.1c-2.5,2.5-11,8.3-38.9,13.8c-27.2,5.3-62.9,8.2-100.4,8.2c-0.1,0-0.2,0-0.3,0
		c0.2,28-1,55.9-1.9,83.9c-0.5,15.1-1.2,30.2-1.7,45.4c0,1.3,1,2.3,2.3,2.3c0.6,0,1.2,0,1.7,0c42.4,0,82.9-2.8,114-7.7
		c21.9-3.5,35.3-7.5,43.6-11.1c1.5-0.6,3.1,0.4,3.2,2c0.3,6.6,0.4,13.1,0.4,19.6c0,0.7-0.3,1.3-0.9,1.8c-4.3,3.4-17.6,9.1-47.6,14
		c-31.1,5.1-71.1,7.9-112.7,7.9c-0.8,0-1.7,0-2.5,0c-1.2,0-2.3,1-2.3,2.2c-0.1,5.6-0.1,11.2,0,16.7c0.4,30.1,2.8,60.2,1.9,90.3
		c-0.4,13.6-1.1,27.3-3.4,40.8c-0.2,1.4,0.9,2.7,2.3,2.7c2.7-0.1,5.2-0.1,7.6-0.2c46.7-1.3,93-6.5,124.1-13.5
		c1.8-0.4,3.3,1.4,2.6,3.1c-2.1,4.8-4.2,9.5-6.4,14.1c-0.1,0.2-0.2,0.4-0.4,0.6c-16.9,18.4-74.9,20.7-123.7,20.7
		c-3.7,0-7.3,0-10.8-0.1c-1,0-1.9,0.7-2.2,1.7C241.3,469.2,240.7,471.7,240.2,474.3z M318.2,246.8c-17.3,1.3-35.9,2-55.1,2.1
		c-1.3,0-2.3-1-2.3-2.3V143.5c0-1.2,1-2.2,2.2-2.3c16.7-0.2,32.9-1,48.1-2.2c1.2-0.1,2.3,0.8,2.4,2c2.2,19.6,5.7,57,6.7,103.4
		C320.3,245.6,319.4,246.7,318.2,246.8z M376.9,237.6c0.1,1.1-0.7,2.2-1.9,2.4c-2.5,0.4-5.1,0.9-7.9,1.3c-9.9,1.6-20.7,2.9-32.3,4
		c-1.3,0.1-2.5-0.9-2.5-2.2c-1-46.2-4.6-83.5-6.8-103.2c-0.1-1.2,0.8-2.3,2-2.5c11.5-1.3,22.2-2.9,31.9-4.9l0,0
		c1.2-0.2,2.3,0.6,2.6,1.8C365.9,149.9,374.2,188.5,376.9,237.6z M320.2,299.6c-1,31.9-4,76.4-12.4,123.9c-0.2,1-1,1.8-2,1.9
		c-13.7,1.2-28,2.1-42.5,2.6c-1.3,0-2.3-1-2.3-2.3V301.7c0-1.2,1-2.2,2.2-2.3c18.8-0.2,37.3-1,54.7-2.2
		C319.1,297.2,320.2,298.3,320.2,299.6z M368.3,413.7c3.7-10.9,6.8-21.9,9.5-33.2c0.8-3.5-1.9-6.7-5.4-6.7c0,0-0.1,0-0.1,0
		c0,0,0,0-0.1,0c-2.9,0-5.5,1.9-6.2,4.8c-3.2,13.5-7.1,26.8-11.9,39.9c-0.3,0.8-0.9,1.3-1.8,1.4c-9.2,1.4-19.1,2.7-29.5,3.8
		c-1.5,0.2-2.7-1.2-2.5-2.6c6.8-40.7,10.8-81.7,11.9-123c0-1.2,0.9-2.1,2.1-2.2c12.6-1.2,24.5-2.6,35.3-4.4c1.7-0.3,3.3-0.5,4.9-0.8
		c1.4-0.2,2.7,0.9,2.7,2.3c-0.4,11.7-1.3,22.8-2.4,33.7c-0.3,2.7,1.4,5.2,4,6c0.1,0.1,0.3,0.1,0.5,0.2c3.4,1.1,7-1.3,7.4-4.9
		c1.2-12.4,2.1-25.1,2.6-38.6c0-1,0.8-1.9,1.8-2.1c9.6-2.3,16.5-4.6,21.7-6.8c1.5-0.6,3.2,0.5,3.1,2.2c-0.4,11.9-1.1,23.5-2.3,35
		c-3.5,33.3-10.4,64.4-20.7,93c-0.2,0.7-0.8,1.2-1.5,1.4c-5.9,1.6-12.8,3.2-20.5,4.6C369.2,417,367.8,415.3,368.3,413.7z"/>
</g>
<g>
	<path class="st0" d="M119.2,451.2C119.3,451.3,119.4,451.4,119.2,451.2L119.2,451.2z"/>
	<path class="st0" d="M119.2,451.2C119.1,451.1,119.1,451,119.2,451.2L119.2,451.2z"/>
	<path class="st0" d="M267.1,466.7c-0.2-1-1.1-1.7-2.2-1.7c-3.5,0-7.1,0.1-10.8,0.1c-48.8,0-106.8-2.4-123.7-20.7
		c-0.2-0.2-0.3-0.4-0.4-0.6c-2.2-4.6-4.4-9.3-6.4-14.1c-0.7-1.7,0.8-3.5,2.6-3.1c31.1,7,77.4,12.2,124.1,13.5c2.4,0.1,5,0.1,7.6,0.2
		c1.4,0,2.5-1.3,2.3-2.7c-2.3-13.4-3-27.2-3.4-40.8c-0.8-30.1,1.6-60.2,1.9-90.3c0.1-5.6,0.1-11.1,0-16.7c0-1.2-1-2.2-2.3-2.2
		c-0.8,0-1.7,0-2.5,0c-41.6,0-81.6-2.8-112.7-7.9c-30.1-4.9-43.4-10.7-47.6-14c-0.5-0.4-0.9-1.1-0.9-1.8c0-6.5,0.2-13,0.4-19.6
		c0.1-1.6,1.7-2.6,3.2-2c8.3,3.6,21.7,7.5,43.6,11.1c31.1,4.9,71.6,7.7,114,7.7c0.6,0,1.2,0,1.7,0c1.3,0,2.3-1.1,2.3-2.3
		c-0.5-15.1-1.3-30.3-1.7-45.4c-0.9-27.9-2-55.9-1.9-83.9c-0.1,0-0.2,0-0.3,0c-37.5,0-73.2-2.9-100.4-8.2
		c-27.9-5.5-36.4-11.3-38.9-13.8c-0.6-0.6-0.8-1.4-0.6-2.1c2-7.8,3.9-14.3,5.4-19.5c0.4-1.4,2-2,3.3-1.3c7.4,4.4,18.7,8.3,33.9,11.5
		c24.6,5.2,56.8,8.3,91.2,8.6c2.9,0,5.4-2,5.9-4.8c0.5-2.6,0.9-5.5,0.9-7.2c-0.4,0-0.7,0-1.1,0c-35.8,0-69.3-2.9-94.5-8.3
		c-32.9-7-34.9-14.4-34.9-14.5s2.1-7.5,34.9-14.5c23.8-5,55-7.9,88.4-8.3c3.1,0,5.5-2.8,5.2-5.8c-0.1-0.5-0.1-1-0.2-1.4
		c-0.3-2.7-2.6-4.7-5.3-4.7c-34.2,0.3-66.1,3.3-90.6,8.6c-28.6,6.1-43.2,14.2-44.4,24.8c0,0.1,0,0.3-0.1,0.4
		c-2.1,6.1-13,39.1-21.4,86.2c-0.5,3.3,1.8,6.3,5.1,6.8c3.1,0.5,6.1-1.6,6.7-4.7c2.3-12.6,4.7-24.3,7.1-34.7c0.3-1.5,2-2.2,3.3-1.5
		c1.2,0.6,2.3,1.2,3.5,1.7c5.4,2.4,11.1,4.4,16.9,6c1.2,0.3,1.9,1.5,1.6,2.7c-3.9,15.9-12.1,53.7-14.9,102.9
		c-0.1,1.4-1.5,2.4-2.8,2.1c-13.9-3.5-19.9-6.8-22.3-8.7c-0.6-0.5-0.9-1.2-0.9-2c0.5-6.3,1-12.8,1.6-19.2c0.3-3.3-2.1-6.2-5.4-6.5
		h-0.6c-3.1,0-5.6,2.3-6,5.4c-3.8,39.5-3.9,77.5-0.2,113.2c5,48.4,17.9,93.6,37,132.2c0.1,0.2,0.2,0.3,0.3,0.5
		C136.3,469.7,175,477,254.2,477c4.2,0,8.4,0,12.4-0.1c1.4,0,2.5-1.3,2.2-2.7C268.3,471.7,267.7,469.2,267.1,466.7z M188.6,244.4
		c1-46.3,4.5-83.8,6.7-103.4c0.1-1.2,1.2-2.1,2.4-2c15.2,1.2,31.4,2,48.1,2.2c1.2,0,2.2,1,2.2,2.3v103.1c0,1.3-1,2.3-2.3,2.3
		c-19.1-0.1-37.7-0.9-55.1-2.1C189.5,246.7,188.6,245.6,188.6,244.4z M146.9,134.3c0.3-1.2,1.4-1.9,2.6-1.8l0,0
		c9.7,2,20.4,3.6,31.9,4.9c1.2,0.1,2.1,1.2,2,2.5c-2.2,19.7-5.8,57.1-6.8,103.2c0,1.3-1.2,2.4-2.5,2.2c-11.6-1.1-22.3-2.4-32.3-4
		c-2.8-0.5-5.4-0.9-7.9-1.3c-1.1-0.2-1.9-1.2-1.9-2.4C134.8,188.5,143.1,149.9,146.9,134.3z M191.2,297.3c17.4,1.2,35.9,2,54.7,2.2
		c1.2,0,2.2,1,2.2,2.3v123.9c0,1.3-1.1,2.3-2.3,2.3c-14.5-0.5-28.8-1.4-42.5-2.6c-1-0.1-1.8-0.8-2-1.9c-8.4-47.5-11.5-92-12.4-123.9
		C188.7,298.3,189.8,297.2,191.2,297.3z M138.1,416.6c-7.7-1.4-14.6-3-20.5-4.6c-0.7-0.2-1.3-0.7-1.5-1.4
		c-10.3-28.6-17.3-59.7-20.7-93c-1.2-11.4-1.9-23.1-2.3-35c0-1.6,1.6-2.8,3.1-2.2c5.1,2.2,12.1,4.5,21.7,6.8c1,0.2,1.7,1.1,1.8,2.1
		c0.5,13.5,1.4,26.2,2.6,38.6c0.4,3.6,4,6,7.4,4.9c0.2-0.1,0.4-0.1,0.5-0.2c2.6-0.8,4.3-3.3,4-6c-1.1-10.8-2-22-2.4-33.7
		c-0.1-1.4,1.2-2.6,2.7-2.3c1.6,0.3,3.2,0.5,4.9,0.8c10.8,1.8,22.6,3.2,35.3,4.4c1.2,0.1,2,1.1,2.1,2.2c1.1,41.3,5.1,82.4,11.9,123
		c0.2,1.5-1,2.8-2.5,2.6c-10.4-1.1-20.4-2.4-29.5-3.8c-0.8-0.1-1.5-0.7-1.8-1.4c-4.8-13.1-8.7-26.3-11.9-39.9
		c-0.7-2.9-3.3-4.8-6.2-4.8c0,0,0,0-0.1,0c0,0-0.1,0-0.1,0c-3.6,0-6.2,3.2-5.4,6.7c2.7,11.3,5.8,22.3,9.5,33.2
		C141.2,415.3,139.8,417,138.1,416.6z"/>
</g>
<g>
	<path class="st0" d="M-127.5,228.4c14.2,0,27.8-12.2,27.8-41.1c0-29-27.8-52.4-27.8-52.4s-27.8,23.5-27.8,52.4
		S-141.7,228.4-127.5,228.4z"/>
	<path class="st0" d="M-127.5,137c0,0-9.6,67.5,11.2,115.9"/>
	<path class="st0" d="M-127.5,208.2c0,0,12.3-2.7,14.2-17.8"/>
	<path class="st0" d="M-142.2,187.5c0,0,4.4,12.5,12.2,13.6"/>
	<path class="st0" d="M-127.5,181c0,0,4.9,1.1,8.6-11.8"/>
</g>
</svg>
