<?xml version="1.0" encoding="utf-8"?>
<!-- Generator: Adobe Illustrator 23.1.1, SVG Export Plug-In . SVG Version: 6.00 Build 0)  -->
<svg version="1.1" id="Layer_1" xmlns="http://www.w3.org/2000/svg" xmlns:xlink="http://www.w3.org/1999/xlink" x="0px" y="0px"
	 viewBox="0 0 512 512" style="enable-background:new 0 0 512 512;" xml:space="preserve">
<style type="text/css">
	.st0{fill:#7C7C7B;}
</style>
<g>
	<path class="st0" d="M49.7,451.2C49.8,451.3,49.9,451.4,49.7,451.2L49.7,451.2z"/>
	<path class="st0" d="M49.7,451.2C49.6,451.1,49.6,451,49.7,451.2L49.7,451.2z"/>
	<path class="st0" d="M467.3,244.4C467.4,244.4,467.2,244.3,467.3,244.4L467.3,244.4z"/>
	<path class="st0" d="M501.9,268.3c-0.4-2.1-1.7-3.9-3.5-4.9c-7.9-4.8-18.4-8.7-27.3-9.6c1.6-3.5-0.2-7.8-3.8-9.3
		c-7.6-2.9-16-1.4-22.6,1.6c1.1-2.4,0.7-5.2-0.9-7.3c-1.9-2.5-5.2-3.4-8-2.3c-20.7,8.1-27.6,23.5-29.9,32h-0.2
		c-0.8-2.9-2.1-5.7-3.8-8.2c-5.9-8.6-5-15.2-3.7-19.4c0.9-3.2-0.9-6.5-4.1-7.4c-3.2-0.9-6.5,0.9-7.4,4.1c-2.9,10.1-1.1,20,5.4,29.5
		c6.4,9.3-0.2,20-4,24.7c-5.5-0.9-11.2,0.2-16.1,3c-0.2-0.6-0.5-1.1-0.7-1.7c-3.1-6.4-8.6-10.7-14.8-12.6
		c1.3-105.6-28.9-202-32.1-211.8c-0.9-10.7-15.5-19-44.4-25.1c-26-5.5-60.4-8.6-97-8.6c-36.6,0-71,3-97,8.6
		c-28.8,6.1-43.4,14.3-44.4,25c-1.9,5.6-13,38.8-21.5,86.4c-0.5,3.3,1.8,6.3,5.1,6.8c3.1,0.5,6.1-1.6,6.7-4.7
		c2.5-13.9,5.2-26.6,7.8-37.7c2,1.3,4,2.4,6.1,3.3c6.1,2.7,12.5,4.9,19,6.6C61.1,144,52,184.2,49.2,237.1
		c-18.3-4.4-24.2-8.4-26-10.2c0.5-6.7,1-13.5,1.7-20.3c0.3-3.3-2.1-6.2-5.4-6.5h-0.6c-3.1,0-5.6,2.3-6,5.4C9.1,245,9,283,12.7,318.7
		c5,48.5,18,93.8,37.1,132.5c15.4,18.4,54.1,25.8,133.6,25.8c79.3,0,120.8-8.5,134-26.6c0.8-1.6,1.6-3.3,2.4-5
		c1.1,6.1,4.5,11.8,10,15.7c11,7.7,26.1,5.1,33.8-5.9c1.3-1.8,2.3-3.9,3.1-6c1-2.9,1.4-5.9,1.3-9c0.8,0.1,1.5,0.1,2.3,0.1
		c13.2,0,24.1-10.6,24.3-23.8c13.2,2.1,25.6-7,27.7-20.2c0.4-2.3,0.4-4.7,0.1-7c10.3,0,19.5-6.6,22.9-16.3
		c3.6-10.3-0.2-21.7-9.2-27.9c9.2-9.7,8.8-25.1-0.9-34.3c-7.6-7.2-19.1-8.7-28.3-3.7c-0.2-0.7-0.5-1.3-0.8-1.9
		c-1.6-3.3-3.9-6.1-6.7-8.4c3.1-4.5,5.4-9.5,6.6-14.8c2.4,8.1,10,20.9,33.5,27.2c0.6,0.2,1.2,0.2,1.8,0.2c2.4,0,4.7-1.3,5.9-3.4
		c1-1.7,1.3-3.8,0.7-5.8c6.8,2.9,15,4.2,22,0.6c3.4-1.8,4.8-6,3-9.5c-0.1-0.1-0.2-0.3-0.2-0.4c9.1-1.7,20.4-6.6,28-16.6
		C501.8,272.4,502.3,270.3,501.9,268.3z M372.5,311.5c2.2-6.4,9.2-9.8,15.6-7.6c3.1,1.1,5.6,3.3,7,6.2c1.4,2.9,1.6,6.3,0.6,9.3
		c-2.2,6.4-9.2,9.8-15.6,7.6c-3.1-1.1-5.6-3.3-7-6.2C371.7,317.9,371.5,314.6,372.5,311.5z M375.5,383.7c-2.2,6.4-9.2,9.8-15.6,7.5
		c-5.7-2-9.1-7.8-8-13.7l0.9-2.9c2.6-5.7,9.2-8.5,15.2-6.5C374.4,370.3,377.8,377.3,375.5,383.7z M365.7,336.1
		c1.4,2.9,1.6,6.3,0.6,9.3c-2.2,6.4-9.2,9.8-15.6,7.6c-3.1-1.1-5.6-3.3-7-6.2c-1.4-2.9-1.6-6.3-0.6-9.3c2.2-6.4,9.2-9.8,15.6-7.6
		C361.8,330.9,364.3,333.2,365.7,336.1z M353.3,291.9c3.1,1.1,5.6,3.3,7,6.2c1.4,2.9,1.6,6.3,0.6,9.3c-2.2,6.4-9.2,9.8-15.6,7.6
		c-1.2-0.4-2.7-1.4-3.8-2.1c0,0,0,0-0.1,0c-3.6-3.4-5.2-8.8-3.7-13.4C339.9,293.1,346.9,289.7,353.3,291.9z M330.4,343
		c-2.7,1-5.6,1.1-8.4,0.1c-3-1-5.5-3.3-6.9-6.2c-1.4-2.9-1.6-6.3-0.6-9.3c2.2-6.4,9.2-9.8,15.6-7.6c1.2,0.4,2.6,1.3,3.6,2.1
		c0,0,0.1,0.1,0.1,0c1,0.8,2.1,2,2.8,3.1C332.2,330.1,330,336.5,330.4,343z M325.4,307.5c-3,0.1-5.8,0.7-8.4,1.8
		c0.4-7.3,0.6-14.6,0.7-21.7c9.2-2.1,19.2-5,26.8-8.9v1.2c-1.9,0.4-3.8,1.1-5.7,2C329.2,286.6,323.8,297,325.4,307.5z M325.8,119.8
		c8.2,35.4,13.9,71.3,16.9,107.6c-2.7,2.4-10.2,6-25.6,9.7c-2.9-52.9-11.9-93-15.7-107.7C313.3,126.2,320.9,122.9,325.8,119.8z
		 M305.2,239.6c-3.3,0.6-6.9,1.2-10.7,1.8c-10.4,1.6-21.8,3-33.9,4.1c-1.1-54.2-5.2-93.4-7-107.9c11.3-1.3,22-2.8,31.6-4.6
		c1.6-0.3,3.1-0.6,4.6-0.9C293.3,146.3,302.5,187,305.2,239.6z M88.5,55.3C113.7,50,147.3,47,183,47s69.3,2.9,94.5,8.3
		c32.9,7,34.9,14.4,34.9,14.5c0,0.1-2.1,7.5-34.9,14.5c-25.2,5.3-58.8,8.3-94.5,8.3c-35.8,0-69.3-2.9-94.5-8.3
		c-32.9-7-34.9-14.4-34.9-14.5C53.6,69.7,55.7,62.3,88.5,55.3z M43.1,106.4c2.5-9.8,4.8-17.7,6.6-23.5C56.9,88,69,92.4,86,96
		c26,5.5,60.4,8.6,97,8.6c36.6,0,71-3,97-8.6c16.9-3.6,29-7.9,36.2-13c1.7,5.9,4,14.1,6.5,24c-1.9,2.2-9.6,8.5-39.8,14.3
		c-27.1,5.2-62.4,8.1-99.6,8.1c-37.5,0-73.2-2.9-100.4-8.2C49.9,114.7,44,107.8,43.1,106.4z M248.6,246.5
		c-18.6,1.4-38.7,2.2-59.3,2.3V141.3c18.2-0.1,35.9-1,52.3-2.4C243.4,152.9,247.5,191.9,248.6,246.5z M177.3,141.3v107.6
		c-20.7-0.1-40.9-0.9-59.5-2.3c1-49.1,4.8-88.5,7-107.7C141.3,140.3,159,141.1,177.3,141.3z M76.7,132.1c0.7,0.1,1.4,0.3,2.1,0.4
		c10.3,2.1,21.8,3.8,34.1,5.1c-2.2,19.4-6.1,58.8-7.1,107.9c-12.5-1.1-24.1-2.5-34.7-4.2c-3.6-0.6-6.8-1.1-9.9-1.7
		C63.9,187.1,73.1,146.3,76.7,132.1z M22.6,240.8c7.9,4,21.8,8.5,46.6,12.5c31.1,4.9,71.6,7.7,114,7.7c41.8,0,82-2.7,113.2-7.6
		c9.3-1.5,32.8-5.2,47.2-12.5c0.5,7.8,0.8,15.7,0.9,23.8c-2.2,2.1-11.7,8.8-48.9,14.9c-31.1,5.1-71.1,7.9-112.4,7.9
		c-41.6,0-81.6-2.8-112.7-7.9C38,274.3,25.1,268,22,264.8C22,256.9,22.2,248.9,22.6,240.8z M312.5,351.8c-0.4,0.3-0.7,0.7-1,1.1
		c0.1-0.5,0.2-1.1,0.3-1.6C312,351.4,312.2,351.6,312.5,351.8z M302.1,334.7c-4.2,31.4-11.7,62.7-21.1,88.8
		c-10,1.5-20.9,2.6-32.7,3.4c6.8-39.2,11.1-85.2,12.3-130.9c13.3-1.2,25.7-2.8,37.1-4.6c2.1-0.3,4.8-0.8,8-1.4
		c-0.3,10.4-0.6,21.1-1.6,31.6c-0.3,0.7-0.6,1.4-0.9,2.2C302,327.4,301.6,331.1,302.1,334.7z M235.9,427.7
		c-14.6,0.7-30.2,0.9-46.6,0.6V299.5c20.4-0.1,40.4-0.9,59.2-2.4C247.3,342.9,242.9,388.8,235.9,427.7z M177.3,299.5V428
		c-15.9-0.5-31.6-1.5-46.6-2.8c-8.9-49.4-11.9-95.7-12.8-128.1C136.7,298.5,156.8,299.3,177.3,299.5z M45.7,411.7
		c-10.5-28.9-17.6-60.4-21.1-94.1c-1.3-12.6-2.1-25.4-2.4-38.6c5.6,2.7,13.9,5.7,26.6,8.6c0.5,14.1,1.4,27.4,2.7,40.3
		c0.4,3.6,4,6,7.4,4.9c0.2-0.1,0.4-0.1,0.5-0.2c2.6-0.8,4.3-3.3,4-6c-1.2-11.7-2.1-23.8-2.5-36.5c2.5,0.5,5,0.9,7.7,1.3
		c11.4,1.9,23.9,3.4,37.3,4.6c1,43,5.2,85.7,12.4,128c-12-1.2-23.4-2.7-33.8-4.3c-5.6-15.3-10.1-30.7-13.6-46.6
		c-1.6,0.5-3.3,0.7-5,0.7c-2.6,0-5.1-0.5-7.3-1.3c3.3,15.3,7.4,30.2,12.5,44.8C61.4,415.7,52.8,413.7,45.7,411.7z M307.1,444.2
		C296.3,458,254.6,465,183.3,465c-49,0-107.3-2.4-123.9-21c-2.9-6-5.7-12.2-8.3-18.5c31,7.5,79.5,13.1,128.4,14.5
		c7.2,0.2,15.6,0.4,24.8,0.4c33.8,0,77.8-2.2,109.8-11.4C312.1,433.8,309.8,438.6,307.1,444.2z M313.2,416.6
		c-6.1,1.9-12.3,3.5-18.6,4.6c4.7-14.2,8.7-28.6,11.9-43.1c1.1,2.9,2.7,5.6,5,7.9c1.5,1.6,3.2,3,5,4.1
		C310,397.7,309,408.2,313.2,416.6z M318.1,374.5c-1.4-2.9-1.6-6.3-0.6-9.3c2.2-6.4,9.2-9.8,15.6-7.6c3.1,1.1,5.6,3.3,7,6.2
		c1.1,2.3,1.5,4.9,1,7.4l-0.9,3c-2.8,6.2-10.1,8.9-16.3,6.1C321.5,379.1,319.4,377,318.1,374.5z M324,410.9
		c-1.4-2.9-1.6-6.3-0.6-9.3c2.2-6.4,9.2-9.8,15.6-7.6c3.1,1.1,5.6,3.3,7,6.2c1.4,2.9,1.6,6.3,0.6,9.3c-2.2,6.4-9.2,9.8-15.6,7.6
		C327.9,416,325.4,413.8,324,410.9z M355.3,445c-2.2,6.4-9.2,9.8-15.6,7.6c-3.1-1.1-5.6-3.3-7-6.2c-1.4-2.9-1.6-6.3-0.6-9.3
		c2.2-6.4,9.2-9.8,15.6-7.6c3.1,1.1,5.6,3.3,7,6.2C356.2,438.6,356.4,442,355.3,445z M381.9,419.9c-2.2,6.4-9.2,9.8-15.6,7.6
		c-3.1-1.1-5.6-3.3-7-6.2c-1.4-2.9-1.6-6.3-0.6-9.3c2.2-6.4,9.2-9.8,15.6-7.6c3.1,1.1,5.6,3.3,7,6.2
		C382.8,413.4,383,416.8,381.9,419.9z M433.3,359.4c1.4,2.9,1.6,6.3,0.6,9.4c-2.2,6.4-9.2,9.8-15.6,7.6c-3.9-1.4-7.1-5.7-8.4-9.7
		c2.1-3.2,3.4-6.9,3.8-10.7c3.5-2.5,8.8-4.1,12.6-2.8C429.3,354.2,431.9,356.5,433.3,359.4z M406.8,324.1c2.2-6.4,9.2-9.8,15.6-7.6
		c3.1,1.1,5.6,3.3,7,6.2c1.4,2.9,1.6,6.3,0.6,9.3c-2.2,6.4-9.2,9.8-15.6,7.6c-3.1-1.1-5.6-3.3-7-6.2
		C406,330.6,405.8,327.2,406.8,324.1z M409.3,387c1.4,2.9,1.6,6.3,0.6,9.3c-2.2,6.4-9.2,9.8-15.6,7.6c-3.1-1.1-5.6-3.3-7-6.2
		c-1.4-2.9-1.6-6.3-0.6-9.3c2.2-6.4,9.2-9.8,15.6-7.6C405.4,381.8,407.9,384.1,409.3,387z M400.5,348.1c1.4,2.9,1.6,6.3,0.6,9.3
		c-2.2,6.4-9.2,9.8-15.6,7.6c-3.1-1.1-5.6-3.3-7-6.2c-1.4-2.9-1.6-6.3-0.6-9.3c2.2-6.4,9.2-9.8,15.6-7.6
		C396.6,342.9,399.1,345.2,400.5,348.1z M463.6,279.4c-3.5-1.2-7.3,0.8-8.5,4.3c-0.5,1.4-0.4,3,0.1,4.4c0.3,0.8,0.6,1.5,1,2.2
		c-5.4-1.4-10.8-5.2-12-6.8c-2.5-3.3-7.1-3.9-10.4-1.4c-1.3,1-2.3,2.4-2.7,4c-0.6,2.2-0.7,4.5-0.3,6.8c-7.5-4-11-8.7-12.6-12.4h2.6
		c8.4,0,5.8-0.2,17.8-0.8c3.3-0.2,5.9-3,5.7-6.3c-0.2-3.3-3.1-5.9-6.4-5.7c-12.8,0.7-11,0.9-19.6,0.8c2.2-5.8,5.9-10.8,10.7-14.7
		c0,2.1,0.4,4.2,1.1,6.2c1.5,3.8,5.8,5.7,9.6,4.1c1.5-0.6,2.8-1.7,3.6-3.1c0.9-1.4,6.1-4.9,11.7-6c-0.5,1.1-0.9,2.2-1.2,3.4
		c-0.8,3.6,1.4,7.2,5.1,8c1.5,0.3,3,0.2,4.4-0.5c2.1-0.9,11.5-1.2,23.6,4.8C478.5,278.5,466.4,280,463.6,279.4z"/>
</g>
<g>
	<path class="st0" d="M-127.5,228.4c14.2,0,27.8-12.2,27.8-41.1c0-29-27.8-52.4-27.8-52.4s-27.8,23.5-27.8,52.4
		C-155.3,216.2-141.7,228.4-127.5,228.4z"/>
	<path class="st0" d="M-127.5,137c0,0-9.6,67.5,11.2,115.9"/>
	<path class="st0" d="M-127.5,208.2c0,0,12.3-2.7,14.2-17.8"/>
	<path class="st0" d="M-142.2,187.5c0,0,4.4,12.5,12.2,13.6"/>
	<path class="st0" d="M-127.5,181c0,0,4.9,1.1,8.6-11.8"/>
</g>
<path class="st0" d="M412.1,245.8l-39.7-8.3c-2.8-0.6-4.6-3.3-4-6.1l0,0c0.6-3.1,3.6-5,6.7-4.4l38.8,8.1c3.1,0.6,5,3.6,4.4,6.7v0
	C417.7,244.6,414.9,246.4,412.1,245.8z"/>
</svg>
