<?xml version="1.0" encoding="utf-8"?>
<!-- Generator: Adobe Illustrator 23.1.1, SVG Export Plug-In . SVG Version: 6.00 Build 0)  -->
<svg version="1.1" id="Livello_1" xmlns="http://www.w3.org/2000/svg" xmlns:xlink="http://www.w3.org/1999/xlink" x="0px" y="0px"
	 viewBox="0 0 1190.6 1190.6" style="enable-background:new 0 0 1190.6 1190.6;" xml:space="preserve">
<style type="text/css">
	.st0{fill:#7C7C7B;}
	.st1{fill:none;stroke:#7C7C7B;stroke-width:27;stroke-linecap:round;stroke-linejoin:round;}
</style>
<g>
	<g>
		<g>
			<path class="st0" d="M595,267c44.3,0,87.3,8.7,127.8,25.8c39.1,16.5,74.2,40.2,104.4,70.4c30.2,30.2,53.8,65.3,70.4,104.4
				c17.1,40.5,25.8,83.4,25.8,127.8s-8.7,87.3-25.8,127.8c-16.5,39.1-40.2,74.2-70.4,104.4c-30.2,30.2-65.3,53.8-104.4,70.4
				c-40.5,17.1-83.4,25.8-127.8,25.8s-87.3-8.7-127.8-25.8c-39.1-16.5-74.2-40.2-104.4-70.4c-30.2-30.2-53.8-65.3-70.4-104.4
				c-17.1-40.5-25.8-83.4-25.8-127.8s8.7-87.3,25.8-127.8c16.5-39.1,40.2-74.2,70.4-104.4c30.2-30.2,65.3-53.8,104.4-70.4
				C507.6,275.7,550.6,267,595,267 M595.7,903.9c12.9,0,25.5-5.6,34.6-15.5c9-9.7,13.6-22.5,12.7-35.1
				c-1.9-25.9-22.7-45.5-48.5-45.5c-12.9,0-25.5,5.6-34.6,15.5c-9,9.7-13.6,22.5-12.7,35.1C549.1,884.3,570,903.9,595.7,903.9
				 M595,240c-196.2,0-355.3,159.1-355.3,355.3S398.7,950.6,595,950.6s355.3-159.1,355.3-355.3S791.2,240,595,240L595,240z
				 M595.7,876.9c-11.8,0-20.7-8.8-21.6-20.4c-0.8-11.1,9.4-21.6,20.4-21.6c11.8,0,20.7,8.8,21.6,20.4
				C617,866.4,606.7,876.9,595.7,876.9L595.7,876.9z"/>
		</g>
		<g>
			<path class="st0" d="M595,352.5c33.1,0,65.3,6.5,95.5,19.3c29.2,12.4,55.5,30,78,52.6c22.5,22.5,40.2,48.8,52.6,78
				c12.8,30.2,19.3,62.4,19.3,95.5c0,119.4-85.8,220-200.4,241.2c-7-18.5-24.6-31.1-45.3-31.1c-12.9,0-25.5,5.6-34.6,15.5
				c-4.3,4.6-7.6,10-9.8,15.7c-114.6-21.1-200.5-121.7-200.5-241.2c0-33.1,6.5-65.3,19.3-95.5c12.4-29.2,30-55.5,52.6-78
				c22.5-22.5,48.8-40.2,78-52.6C529.7,358.9,561.8,352.5,595,352.5 M595,325.5c-150.4,0-272.3,121.9-272.3,272.3
				c0,145.2,113.7,263.9,257,271.9c-3.1-3.5-5.1-8.1-5.4-13.2c-0.8-11.1,9.4-21.6,20.4-21.6c11.8,0,20.7,8.8,21.6,20.4
				c0.4,5.3-1.7,10.4-5.2,14.4c143-8.3,256.4-126.8,256.4-271.9C867.3,447.4,745.4,325.5,595,325.5L595,325.5z"/>
		</g>
	</g>
	<polyline class="st1" points="598.3,431 598.3,602 697.2,662.3 	"/>
</g>
</svg>
