<?xml version="1.0" encoding="utf-8"?>
<!-- Generator: Adobe Illustrator 23.1.1, SVG Export Plug-In . SVG Version: 6.00 Build 0)  -->
<svg version="1.1" id="Livello_1" xmlns="http://www.w3.org/2000/svg" xmlns:xlink="http://www.w3.org/1999/xlink" x="0px" y="0px"
	 viewBox="0 0 1190.6 1190.6" style="enable-background:new 0 0 1190.6 1190.6;" xml:space="preserve">
<style type="text/css">
	.st0{fill:none;stroke:#7C7C7B;stroke-width:27;stroke-linecap:round;stroke-linejoin:round;}
	.st1{fill:#7C7C7B;}
</style>
<g>
	<path class="st0" d="M645.2,786.8v27c0,40-32.4,72.4-72.4,72.4H360.3l-173,90.9l22.9-90.9h-37.6c-40,0-72.4-32.4-72.4-72.4V670
		c0-40,32.4-72.4,72.4-72.4h60.9"/>
	<path class="st0" d="M1087.5,420.9v208.8c0,58-47,105-105,105h-54.6l33.2,131.9L709.9,734.7H401.3c-58,0-105-47-105-105V420.9
		c0-58,47-105,105-105h581.2C1040.5,315.8,1087.5,362.8,1087.5,420.9z"/>
</g>
<g>
	<circle class="st0" cx="529.2" cy="530.1" r="37.9"/>
	<circle class="st0" cx="673.2" cy="530.1" r="37.9"/>
	<circle class="st0" cx="817.2" cy="530.1" r="37.9"/>
</g>
<g>
	<g>
		<g>
			<path class="st1" d="M-398.5-86c44.3,0,87.3,8.7,127.8,25.8c39.1,16.5,74.2,40.2,104.4,70.4c30.2,30.2,53.8,65.3,70.4,104.4
				C-78.9,155-70.2,198-70.2,242.3s-8.7,87.3-25.8,127.8c-16.5,39.1-40.2,74.2-70.4,104.4c-30.2,30.2-65.3,53.8-104.4,70.4
				c-40.5,17.1-83.4,25.8-127.8,25.8s-87.3-8.7-127.8-25.8c-39.1-16.5-74.2-40.2-104.4-70.4c-30.2-30.2-53.8-65.3-70.4-104.4
				c-17.1-40.5-25.8-83.4-25.8-127.8s8.7-87.3,25.8-127.8c16.5-39.1,40.2-74.2,70.4-104.4c30.2-30.2,65.3-53.8,104.4-70.4
				C-485.8-77.3-442.8-86-398.5-86 M-397.7,550.9c12.9,0,25.5-5.6,34.6-15.5c9-9.7,13.6-22.5,12.7-35.1
				c-1.9-25.9-22.7-45.5-48.5-45.5c-12.9,0-25.5,5.6-34.6,15.5c-9,9.7-13.6,22.5-12.7,35.1C-444.3,531.4-423.5,550.9-397.7,550.9
				 M-398.5-113c-196.2,0-355.3,159.1-355.3,355.3s159.1,355.3,355.3,355.3S-43.2,438.5-43.2,242.3S-202.3-113-398.5-113L-398.5-113
				z M-397.7,523.9c-11.8,0-20.7-8.8-21.6-20.4c-0.8-11.1,9.4-21.6,20.4-21.6c11.8,0,20.7,8.8,21.6,20.4
				C-376.5,513.4-386.7,523.9-397.7,523.9L-397.7,523.9z"/>
		</g>
		<g>
			<path class="st1" d="M-398.5-0.5c33.1,0,65.3,6.5,95.5,19.3c29.2,12.4,55.5,30,78,52.6c22.5,22.5,40.2,48.8,52.6,78
				c12.8,30.2,19.3,62.4,19.3,95.5c0,119.4-85.8,220-200.4,241.2c-7-18.5-24.6-31.1-45.3-31.1c-12.9,0-25.5,5.6-34.6,15.5
				c-4.3,4.6-7.6,10-9.8,15.7C-557.9,465-643.8,364.4-643.8,244.8c0-33.1,6.5-65.3,19.3-95.5c12.4-29.2,30-55.5,52.6-78
				c22.5-22.5,48.8-40.2,78-52.6C-463.7,6-431.6-0.5-398.5-0.5 M-398.5-27.5c-150.4,0-272.3,121.9-272.3,272.3
				c0,145.2,113.7,263.9,257,271.9c-3.1-3.5-5.1-8.1-5.4-13.2c-0.8-11.1,9.4-21.6,20.4-21.6c11.8,0,20.7,8.8,21.6,20.4
				c0.4,5.3-1.7,10.4-5.2,14.4c143-8.3,256.4-126.8,256.4-271.9C-126.2,94.4-248.1-27.5-398.5-27.5L-398.5-27.5z"/>
		</g>
	</g>
	<polyline class="st0" points="-395.1,78.1 -395.1,249 -296.3,309.4 	"/>
</g>
</svg>
