<svg xmlns="http://www.w3.org/2000/svg" xmlns:xlink="http://www.w3.org/1999/xlink" width="1080" zoomAndPan="magnify" viewBox="0 0 810 809.999993" height="1080" preserveAspectRatio="xMidYMid meet" version="1.0"><defs><clipPath id="b3b96062b2"><path d="M 298.28125 243 L 512 243 L 512 565 L 298.28125 565 Z M 298.28125 243 " clip-rule="nonzero"/></clipPath></defs><g clip-path="url(#b3b96062b2)"><path fill="#4a4a49" d="M 511.21875 349.21875 C 511.21875 290.761719 463.8125 243 405 243 C 346.1875 243 298.78125 290.761719 298.78125 349.21875 C 298.78125 367.039062 303.414062 384.148438 311.257812 399.117188 L 375.414062 519.949219 L 394.304688 555.59375 C 400.367188 567 410.347656 567 416.40625 555.59375 L 428.523438 532.425781 L 499.097656 399.117188 C 506.941406 384.148438 511.21875 367.394531 511.21875 349.21875 Z M 511.21875 349.21875 " fill-opacity="1" fill-rule="nonzero"/></g><path strokeLinecap="round" transform="matrix(0.180457, 0, 0, 0.180457, 298.282488, 269.160299)" fill="none" strokeLinejoin="round" d="M 587.392192 622.703682 L 587.392192 992.901893 L 477.406395 992.901893 L 689.498668 992.901893 L 587.305606 992.901893 " stroke="#7c7c7b" strokeWidth="21" stroke-opacity="1" stroke-miterlimit="4"/><path fill="#ffffff" d="M 435.339844 352.496094 C 434.796875 355.113281 433.949219 357.621094 432.777344 359.984375 C 431.082031 363.429688 428.789062 366.480469 425.9375 369.0625 C 420.164062 374.292969 412.546875 377.179688 404.480469 377.179688 C 396.398438 377.179688 388.761719 374.292969 382.988281 369.0625 C 380.15625 366.480469 377.847656 363.429688 376.167969 359.984375 C 375.011719 357.621094 374.164062 355.113281 373.625 352.496094 L 435.339844 352.496094 M 439.6875 348.707031 L 369.273438 348.707031 C 370.664062 367.453125 385.894531 380.972656 404.464844 380.972656 C 423.015625 380.972656 438.246094 367.453125 439.6875 348.707031 Z M 439.6875 348.707031 " fill-opacity="1" fill-rule="nonzero"/><path strokeLinecap="round" transform="matrix(0.180457, 0, 0, 0.180457, 298.282488, 269.160299)" fill="none" strokeLinejoin="round" d="M 587.392192 622.703682 L 587.392192 992.901893 L 477.406395 992.901893 L 689.498668 992.901893 L 587.305606 992.901893 " stroke="#7c7c7b" strokeWidth="21" stroke-opacity="1" stroke-miterlimit="4"/><path fill="#ffffff" d="M 430.429688 309.132812 L 436.023438 345.890625 C 436.023438 346.703125 435.988281 347.570312 435.917969 348.273438 C 435.917969 348.273438 435.917969 348.289062 435.917969 348.289062 C 435.285156 356.140625 431.75 363.414062 425.917969 368.773438 C 420.074219 374.167969 412.457031 377.144531 404.480469 377.144531 C 396.46875 377.144531 388.835938 374.203125 383.007812 368.84375 C 377.195312 363.503906 373.660156 356.25 373.0625 348.417969 C 373.0625 348.398438 373.0625 348.378906 373.0625 348.378906 C 373.007812 347.730469 372.972656 346.792969 372.957031 345.925781 L 378.117188 309.132812 L 430.429688 309.132812 M 431.1875 305.34375 L 377.863281 305.34375 C 376.132812 305.34375 374.652344 306.625 374.398438 308.355469 L 369.164062 345.601562 C 369.164062 345.65625 369.148438 345.710938 369.148438 345.765625 C 369.148438 346.683594 369.183594 347.839844 369.273438 348.722656 C 370.664062 366.894531 385.894531 380.953125 404.464844 380.953125 C 422.996094 380.953125 438.226562 366.75 439.671875 348.617188 C 439.742188 347.714844 439.796875 346.667969 439.796875 345.726562 C 439.796875 345.675781 439.796875 345.601562 439.777344 345.546875 L 434.039062 307.832031 C 433.839844 306.386719 432.613281 305.34375 431.1875 305.34375 Z M 431.1875 305.34375 " fill-opacity="1" fill-rule="nonzero"/><path fill="#ffffff" d="M 435.339844 352.496094 C 434.796875 355.113281 433.949219 357.621094 432.777344 359.984375 C 431.082031 363.429688 428.789062 366.480469 425.9375 369.0625 C 420.164062 374.292969 412.546875 377.179688 404.480469 377.179688 C 396.398438 377.179688 388.761719 374.292969 382.988281 369.0625 C 380.15625 366.480469 377.847656 363.429688 376.167969 359.984375 C 375.011719 357.621094 374.164062 355.113281 373.625 352.496094 L 435.339844 352.496094 M 439.6875 348.707031 L 369.273438 348.707031 C 370.664062 367.453125 385.894531 380.972656 404.464844 380.972656 C 423.015625 380.972656 438.246094 367.453125 439.6875 348.707031 Z M 439.6875 348.707031 " fill-opacity="1" fill-rule="nonzero"/></svg>