<?xml version="1.0" encoding="UTF-8"?>
<svg id="Livello_1" data-name="Livello 1" xmlns="http://www.w3.org/2000/svg" version="1.1" viewBox="0 0 43 43">
  <defs>
    <style>
      .cls-1 {
        fill: #fff;
      }

      .cls-1, .cls-2 {
        stroke-width: 0px;
      }

      .cls-2 {
        fill: #4a4a49;
      }
    </style>
  </defs>
  <path class="cls-2" d="M21.8,0c0,0-.1,0-.2,0h-.3c0,0-.1,0-.2,0C13.4.1,7,6.6,7,14.4c0,1.3.4,3.7.4,3.7.9,6.9,7.2,16.5,13.8,24.8,0,.1.2.2.3.2s0,0,0,0c0,0,0,0,0,0,.1,0,.2,0,.3-.2,6.6-8.3,12.9-17.9,13.8-24.8,0,0,.4-2.4.4-3.7C36,6.6,29.6.1,21.8,0"/>
  <path class="cls-1" d="M21.5,23.6c5,0,9-4,9-9s-4-9-9-9-9,4-9,9,4,9,9,9"/>
</svg>