<?xml version="1.0" encoding="UTF-8"?>
<svg id="Livello_1" data-name="Livello 1" xmlns="http://www.w3.org/2000/svg" version="1.1" viewBox="0 0 43 43">
  <defs>
    <style>
      .cls-1 {
        fill: #7c7c7a;
      }

      .cls-1, .cls-2 {
        stroke-width: 0px;
      }

      .cls-2 {
        fill: #fff;
      }
    </style>
  </defs>
  <path class="cls-1" d="M21.8,0h-.7C13.4.1,7,6.6,7,14.4s.4,3.7.4,3.7c.9,6.9,7.2,16.5,13.8,24.8,0,0,.2.2.3.2s0,0,0,0h0c.1,0,.2,0,.3-.2,6.6-8.3,12.9-17.9,13.8-24.8,0,0,.4-2.4.4-3.7C36,6.6,29.6.1,21.8,0"/>
  <path class="cls-2" d="M21.5,21.6c4,0,7.2-3.2,7.2-7.2s-3.2-7.2-7.2-7.2-7.2,3.2-7.2,7.2,3.2,7.2,7.2,7.2"/>
</svg>