<?xml version="1.0" standalone="no"?>
<!DOCTYPE svg PUBLIC "-//W3C//DTD SVG 1.1//EN" "http://www.w3.org/Graphics/SVG/1.1/DTD/svg11.dtd">
<svg id="Layer_1" data-name="Layer 1" xmlns="http://www.w3.org/2000/svg" viewBox="0 0 64 64" width="64" height="64"><path d="M59.55,18.92A14.27,14.27,0,0,0,46.6,10.74a7.65,7.65,0,0,0,.63-5.91,1,1,0,0,0-.72-.64C38.23,2.28,34.32,6.65,32.73,9.43h0c-.13.22-.24.43-.34.62a7.64,7.64,0,0,0-3.12.77A9.23,9.23,0,0,0,24.5,3.36a1,1,0,0,0-1.1.07l-3.07,2.3a1,1,0,0,0-.39.93,1,1,0,0,0,.62.8,9.33,9.33,0,0,1,4.43,4,8.76,8.76,0,0,0-5.59-2,1,1,0,0,0,0,2A6.76,6.76,0,0,1,25.34,15c-.14.09-.26.19-.4.29s-.28.18-.41.28-.37.31-.55.47-.24.19-.35.3-.36.38-.54.57-.18.19-.26.28a9.43,9.43,0,0,0-.66.9l0,0a11.48,11.48,0,0,0-.59,1l-.15.33c-.12.25-.23.51-.33.77s-.1.3-.15.45-.16.48-.23.73-.08.34-.11.51-.09.34-.12.52c-.2.16-.38.35-.57.52s-.2.18-.29.28a.27.27,0,0,0-.08.07,6.14,6.14,0,0,0-.45-.43,1.37,1.37,0,0,0-.17-.17,7.55,7.55,0,0,0-.77-.6,1.37,1.37,0,0,0-.2-.13,7,7,0,0,0-.63-.38L17,21.43l-.58-.26L16,21a5.8,5.8,0,0,0-.59-.19l-.36-.1q-.33-.08-.66-.12l-.32-.05a8.26,8.26,0,0,0-1-.06h0a6.64,6.64,0,0,1-.42-2.34,6.74,6.74,0,0,1,2.29-5.07,1,1,0,1,0-1.32-1.5A8.71,8.71,0,0,0,11,20.77a8.75,8.75,0,0,0,.06,17,9,9,0,0,0-.46,2.77,8.74,8.74,0,0,0,7,8.58,8.75,8.75,0,1,0,17,2.86,8.57,8.57,0,0,0-.49-2.84,8.81,8.81,0,0,0,7.15-8.6,8.65,8.65,0,0,0-.17-1.69,8.71,8.71,0,0,0,3.14-1.4,17.89,17.89,0,0,0,7.54.27,1,1,0,0,0,.77-.66,18.29,18.29,0,0,0-.8-13.8,13.91,13.91,0,0,0,7.51-3.18A1,1,0,0,0,59.55,18.92ZM28.89,13.43a5.66,5.66,0,0,1,2.65-1.28c-.11.31-.18.59-.24.83A13.81,13.81,0,0,0,28.89,13.43Zm-6.09-7,1.26-.94a7.16,7.16,0,0,1,3.22,6.34A10.09,10.09,0,0,0,22.8,6.38ZM27,33.77l-.06,0a8.14,8.14,0,0,0-.89.87l-.1.09c-.11-.13-.23-.24-.35-.36a.86.86,0,0,1-.13-.14A8.68,8.68,0,0,0,24,33.1c-.05,0-.11-.06-.17-.1s-.43-.24-.66-.35l-.27-.12-.6-.23L22,32.19,21.33,32,21,32c-.28-.05-.57-.09-.86-.12h-.11l-.42,0a.47.47,0,0,1,0-.1c0-.08-.05-.16-.08-.23s-.1-.32-.14-.48a2.33,2.33,0,0,1-.07-.25c0-.17-.06-.33-.08-.5s0-.15,0-.23c0-.24,0-.48,0-.73a6.59,6.59,0,0,1,.67-2.93,5.26,5.26,0,0,1,.36-.65l0-.06v.13c0,.29,0,.6.05.9a1,1,0,0,0,.52.82,7.66,7.66,0,0,0,5.92.29A15.88,15.88,0,0,0,27,33.77ZM6.35,29.28a6.79,6.79,0,0,1,6.15-6.73,6.08,6.08,0,0,1,.61,0,6.84,6.84,0,0,1,.79.05l.26,0,.51.1.29.08.46.14.29.12.42.19.29.15.39.24.26.18c.13.09.25.19.37.29l.24.2c.12.11.23.23.34.34l.21.23.06.08c-.1.18-.2.36-.28.54a8.77,8.77,0,0,0-.86,3.79,8.64,8.64,0,0,0,.1,1.24l.06.35a8.45,8.45,0,0,0,.22.9c0,.08,0,.15,0,.22l-.87.24-.08,0c-.3.1-.59.22-.88.35l-.28.14a6,6,0,0,0-.65.37l-.27.16c-.25.17-.49.35-.73.54l-.09.07a9,9,0,0,0-.77.74l-.12.14c-.19.22-.38.45-.55.69l-.14.21c-.06.09-.13.17-.19.27A6.78,6.78,0,0,1,6.35,29.28Zm6.29,11.28a6.62,6.62,0,0,1,.75-3.09,6.77,6.77,0,0,1,5.67-3.66h.34l.53,0a6.31,6.31,0,0,1,.76.1l.21,0a5,5,0,0,1,.52.14l.28.1.42.16.3.15.36.18.31.2.3.2.32.25.25.22c.1.09.21.19.31.3l.2.21.3.36,0,.06,0,.06a8.79,8.79,0,0,0-1,4,7.59,7.59,0,0,0,.07,1.07c0,.14.05.27.07.41s.07.43.12.64.1.32.15.47a5,5,0,0,0,.17.55c.06.15.13.3.2.45s.13.31.21.46l-.09.13a3.22,3.22,0,0,1-.24.28c-.1.12-.2.23-.31.34l-.27.25-.34.29-.3.21c-.12.09-.25.17-.38.25l-.31.18-.42.2-.32.13a3.53,3.53,0,0,1-.46.15l-.31.1-.54.1-.27.05a7.89,7.89,0,0,1-.84,0h-.28A6.75,6.75,0,0,1,12.64,40.56ZM25.91,58.77A6.77,6.77,0,0,1,19.15,52a6.67,6.67,0,0,1,.56-2.68q.32,0,.63-.06l.23,0a7.88,7.88,0,0,0,1-.19l.26-.08a5.88,5.88,0,0,0,.71-.23l.33-.13.6-.29a3.07,3.07,0,0,0,.31-.17,6.05,6.05,0,0,0,.63-.4c.07,0,.15-.09.22-.15a7.92,7.92,0,0,0,.77-.64l.15-.15c.15-.15.31-.3.45-.46.14.16.3.31.45.47l.13.13a9.33,9.33,0,0,0,.77.64c.07.06.16.11.23.16s.4.27.61.39l.3.17q.32.16.63.3l.29.12a8.6,8.6,0,0,0,.9.29l.06,0a6.42,6.42,0,0,0,1,.19l.31,0,.45,0A6.68,6.68,0,0,1,32.67,52,6.77,6.77,0,0,1,25.91,58.77Zm6.81-11.45h-.15a6.74,6.74,0,0,1-5.75-3.2,2.91,2.91,0,0,1-.2-.35,6.77,6.77,0,0,1-.07-6.29,4.53,4.53,0,0,1,.29-.5,6.42,6.42,0,0,1,.42-.6h0a5.87,5.87,0,0,1,.46-.52l0,0c.15.34.31.67.49,1a14.3,14.3,0,0,0,4.59,5,1,1,0,0,0,.28.13.5.5,0,0,0,.12,0l.16,0h0a.93.93,0,0,0,.23,0h.09a.9.9,0,0,0,.3-.17,14.13,14.13,0,0,0,3.08-3.86,13.27,13.27,0,0,0,.69-1.48l0-.06v0s.07.08.1.13c.15.2.29.41.42.62s.11.18.16.28a7.28,7.28,0,0,1,.44,1,6.5,6.5,0,0,1,.37,2.19A6.8,6.8,0,0,1,32.72,47.32ZM40.55,37l-.1-.18c-.1-.21-.22-.41-.33-.61s-.13-.25-.2-.36h0l.78.39.21.1.64.28.14.07A6.4,6.4,0,0,1,40.55,37ZM50.19,21.3a1,1,0,0,0-.93.5,1,1,0,0,0,0,1.06,16.49,16.49,0,0,1,1.6,13,16.33,16.33,0,0,1-12.61-3.58,1,1,0,0,0-1-.2,1,1,0,0,0-.64.85,9.91,9.91,0,0,1-.21,1.31,10.62,10.62,0,0,1-1,2.71,12.53,12.53,0,0,1-2,2.75A12,12,0,0,1,30,35.87a11.12,11.12,0,0,1-.85-2h0a14,14,0,0,1-.08-7.6,1,1,0,0,0-.35-1.11,1,1,0,0,0-1.16,0,5.86,5.86,0,0,1-5.32.82c0-.07,0-.15,0-.22h0c0-.22,0-.43,0-.65s0-.69,0-1,.05-.61.09-.9h0a8.75,8.75,0,0,1,4.28-6.61.53.53,0,0,0,.15-.08l.21-.12.07,0h0A12.35,12.35,0,0,1,31.68,15l1.51,1.75a8.7,8.7,0,0,0-4.72,4.75,1,1,0,0,0,.63,1.26.89.89,0,0,0,.32.05,1,1,0,0,0,.95-.68c.71-2.15,3.08-3.34,4.18-3.79l1,1.2a9.89,9.89,0,0,0-1.42,4.15c0,.25,0,.49,0,.73v.24a7.72,7.72,0,0,0,.06.82s0,0,0,0a8.31,8.31,0,0,0,2,4.29,1,1,0,0,0,1.52-1.3,6.33,6.33,0,0,1-1.55-3.3h0c0-.21,0-.43,0-.67a3.8,3.8,0,0,1,0-.67,5.28,5.28,0,0,1,.1-.71,2.68,2.68,0,0,1,.07-.27l.09-.38.12-.35.09-.25c0-.11.09-.21.13-.31s.07-.15.1-.23l.11-.21,1.88,2.2h0l3,3.55a1,1,0,1,0,1.52-1.3l-3-3.53a0,0,0,0,0,0,0l-1.89-2.2a7.71,7.71,0,0,1,2.83-.37,6,6,0,0,1,4.28,2.26,1,1,0,0,0,.76.34.94.94,0,0,0,.65-.24,1,1,0,0,0,.11-1.41,8,8,0,0,0-5.66-2.95,9.9,9.9,0,0,0-4.36.75l-1-1.22c.62-1,2.14-3.14,4.36-3.52a1,1,0,0,0-.33-2,8.65,8.65,0,0,0-5.39,3.9l-1.51-1.76a12.56,12.56,0,0,1,.75-2.18,10.77,10.77,0,0,1,.51-1h0C36.7,6.5,40.41,5,45.47,6a5.88,5.88,0,0,1-1.63,5.13,1,1,0,0,0-.15,1.15,1,1,0,0,0,1,.52c.08,0,8.5-1.27,12.66,6.27A11.48,11.48,0,0,1,50.19,21.3Z"/><path d="M16,40.56a3,3,0,0,1,.65-1.9,1,1,0,0,0-.18-1.41,1,1,0,0,0-1.4.18,5.12,5.12,0,0,0,.83,7.11,1,1,0,0,0,.63.23A1,1,0,0,0,17.19,43,3.11,3.11,0,0,1,16,40.56Z"/></svg>