<?xml version="1.0" encoding="utf-8"?>
<!-- Generator: Adobe Illustrator 28.0.0, SVG Export Plug-In . SVG Version: 6.00 Build 0)  -->
<svg version="1.1" id="Livello_1" xmlns="http://www.w3.org/2000/svg" xmlns:xlink="http://www.w3.org/1999/xlink" x="0px" y="0px"
	 viewBox="0 0 100 100" style="enable-background:new 0 0 100 100;" xml:space="preserve">
<style type="text/css">
	.st0{clip-path:url(#SVGID_00000067211011098708705570000005218166550471638438_);fill:none;stroke:#7C7B7B;stroke-width:5;}
	.st1{clip-path:url(#SVGID_00000067211011098708705570000005218166550471638438_);fill:#4A4A49;}
	.st2{clip-path:url(#SVGID_00000067211011098708705570000005218166550471638438_);fill:#7C7B7B;}
</style>
<g>
	<defs>
		<rect id="SVGID_1_" width="100" height="100"/>
	</defs>
	<clipPath id="SVGID_00000152227985122587576390000010248136487022067866_">
		<use xlink:href="#SVGID_1_"  style="overflow:visible;"/>
	</clipPath>
	
		<circle style="clip-path:url(#SVGID_00000152227985122587576390000010248136487022067866_);fill:none;stroke:#7C7B7B;stroke-width:5;" cx="50" cy="50" r="47.5"/>
	<path style="clip-path:url(#SVGID_00000152227985122587576390000010248136487022067866_);fill:#4A4A49;" d="M60.3,76.5l1,2.9h-2
		L60.3,76.5z M62.3,82.3H64l-2.9-7.8h-1.5l-2.9,7.8h1.7l0.5-1.6h2.8L62.3,82.3z M56.7,74.5h-6.4v1.3h2.4v6.5h1.6v-6.5h2.4V74.5z
		 M45.6,75.8c0.6,0,1.1,0.2,1.4,0.6c0.3,0.4,0.5,1,0.5,1.8v0.4c0,0.8-0.2,1.4-0.5,1.8c-0.3,0.4-0.8,0.6-1.4,0.6h-0.8v-5.2H45.6z
		 M45.7,82.3c0.7,0,1.3-0.2,1.8-0.5c0.5-0.3,1-0.8,1.3-1.3c0.3-0.6,0.5-1.2,0.5-1.9v-0.4c0-0.7-0.2-1.4-0.5-1.9
		c-0.3-0.6-0.7-1-1.3-1.3c-0.5-0.3-1.2-0.5-1.8-0.5h-2.4v7.8H45.7z M41.4,77.6h-3.1v-1.9h3.6v-1.3h-5.2v7.8h5.2V81h-3.6v-2.1h3.1
		V77.6z"/>
	<path style="clip-path:url(#SVGID_00000152227985122587576390000010248136487022067866_);fill:#4A4A49;" d="M76.6,70.6
		c-0.2,0.2-0.5,0.2-0.9,0.2c-1,0-1.5-0.4-1.5-1.3h-1.6c0,0.5,0.1,1,0.4,1.3c0.3,0.4,0.6,0.7,1.1,0.9c0.5,0.2,1,0.3,1.6,0.3
		c0.9,0,1.6-0.2,2.1-0.6c0.5-0.4,0.8-0.9,0.8-1.6c0-0.6-0.2-1.1-0.6-1.5c-0.4-0.4-1.1-0.8-2-1c-0.5-0.2-0.9-0.3-1.1-0.5
		c-0.3-0.2-0.4-0.4-0.4-0.6c0-0.3,0.1-0.5,0.3-0.7c0.2-0.2,0.5-0.3,0.9-0.3c0.4,0,0.7,0.1,1,0.3c0.2,0.2,0.3,0.5,0.3,0.8h1.6
		c0-0.5-0.1-0.9-0.4-1.3c-0.2-0.4-0.6-0.7-1-0.9c-0.4-0.2-0.9-0.3-1.5-0.3c-0.6,0-1.1,0.1-1.5,0.3c-0.4,0.2-0.8,0.4-1,0.8
		c-0.2,0.3-0.4,0.7-0.4,1.1c0,0.8,0.4,1.5,1.3,1.9c0.3,0.2,0.8,0.4,1.3,0.5c0.6,0.2,0.9,0.4,1.2,0.5c0.2,0.2,0.3,0.4,0.3,0.7
		C76.9,70.2,76.8,70.4,76.6,70.6 M71,67.3h-3.1v-1.9h3.6v-1.3h-5.2V72h5.2v-1.3h-3.6v-2.1H71V67.3z M64.5,64.1h-1.6v5.2l-3.1-5.2
		h-1.6V72h1.6v-5.2l3.1,5.2h1.6V64.1z M54.9,68.3c0,0.8-0.2,1.4-0.4,1.9c-0.3,0.4-0.7,0.6-1.2,0.6c-0.6,0-1-0.2-1.3-0.7
		c-0.3-0.4-0.4-1.1-0.4-1.9v-0.4c0-0.8,0.2-1.4,0.4-1.9c0.3-0.4,0.7-0.6,1.3-0.6c0.5,0,1,0.2,1.3,0.6s0.4,1.1,0.4,1.9V68.3z
		 M56.5,67.9c0-0.8-0.1-1.4-0.4-2c-0.3-0.6-0.7-1-1.2-1.3c-0.5-0.3-1.1-0.5-1.7-0.5c-0.7,0-1.2,0.2-1.7,0.5
		c-0.5,0.3-0.9,0.8-1.2,1.3c-0.3,0.6-0.4,1.3-0.4,2v0.4c0,0.8,0.1,1.4,0.4,2c0.3,0.6,0.7,1,1.2,1.3c0.5,0.3,1.1,0.5,1.7,0.5
		c0.7,0,1.2-0.2,1.7-0.5c0.5-0.3,0.9-0.8,1.2-1.3c0.3-0.6,0.4-1.3,0.4-2V67.9z M47,69.4c0,0.5-0.2,0.8-0.4,1.1
		c-0.2,0.2-0.6,0.3-1.1,0.3c-0.6,0-1-0.2-1.2-0.6c-0.3-0.4-0.4-1-0.4-1.9v-0.6c0-0.8,0.1-1.4,0.4-1.8c0.3-0.4,0.7-0.6,1.2-0.6
		c0.5,0,0.9,0.1,1.1,0.3c0.2,0.2,0.4,0.6,0.4,1.1h1.6c-0.1-0.9-0.4-1.6-1-2c-0.6-0.5-1.3-0.7-2.2-0.7c-0.7,0-1.2,0.2-1.7,0.5
		c-0.5,0.3-0.9,0.7-1.1,1.3c-0.3,0.6-0.4,1.2-0.4,2v0.5c0,1.2,0.3,2.1,0.9,2.8c0.6,0.7,1.4,1,2.4,1c0.9,0,1.7-0.2,2.2-0.7
		c0.6-0.5,0.9-1.1,0.9-2H47z M40.6,64.1H39V72h1.6V64.1z M34.2,64.1h-1.6V72h5v-1.3h-3.4V64.1z M30.7,64.1h-1.6V72h1.6V64.1z
		 M25.5,70.6c-0.2,0.2-0.5,0.2-0.9,0.2c-1,0-1.5-0.4-1.5-1.3h-1.6c0,0.5,0.1,1,0.4,1.3c0.3,0.4,0.6,0.7,1.1,0.9
		c0.5,0.2,1,0.3,1.6,0.3c0.9,0,1.6-0.2,2.1-0.6c0.5-0.4,0.8-0.9,0.8-1.6c0-0.6-0.2-1.1-0.6-1.5c-0.4-0.4-1.1-0.8-2-1
		c-0.5-0.2-0.9-0.3-1.1-0.5c-0.3-0.2-0.4-0.4-0.4-0.6c0-0.3,0.1-0.5,0.3-0.7c0.2-0.2,0.5-0.3,0.9-0.3c0.4,0,0.7,0.1,1,0.3
		c0.2,0.2,0.3,0.5,0.3,0.8h1.6c0-0.5-0.1-0.9-0.4-1.3c-0.2-0.4-0.6-0.7-1-0.9c-0.4-0.2-0.9-0.3-1.5-0.3c-0.6,0-1.1,0.1-1.5,0.3
		c-0.4,0.2-0.8,0.4-1,0.8c-0.2,0.3-0.4,0.7-0.4,1.1c0,0.8,0.4,1.5,1.3,1.9c0.3,0.2,0.8,0.4,1.3,0.5c0.6,0.2,0.9,0.4,1.2,0.5
		c0.2,0.2,0.3,0.4,0.3,0.7C25.9,70.2,25.7,70.4,25.5,70.6"/>
	<path style="clip-path:url(#SVGID_00000152227985122587576390000010248136487022067866_);fill:#4A4A49;" d="M76.2,53.8h-1.6V59
		l-3.1-5.2h-1.6v7.8h1.6v-5.2l3.1,5.2h1.6V53.8z M67.9,53.8h-1.6v7.8h1.6V53.8z M64.5,57.1h-3.1v-2h3.5v-1.3h-5.1v7.8h1.6v-3.2h3.1
		V57.1z M58.1,57.1H55v-2h3.5v-1.3h-5.1v7.8H55v-3.2h3.1V57.1z M48.6,55.8l1,2.9h-2L48.6,55.8z M50.5,61.6h1.7l-2.9-7.8h-1.5
		l-2.9,7.8h1.7l0.5-1.6H50L50.5,61.6z M39.8,55.1h1.3c0.4,0,0.8,0.1,1,0.3c0.2,0.2,0.3,0.5,0.3,0.9c0,0.4-0.1,0.6-0.3,0.9
		c-0.2,0.2-0.5,0.3-0.9,0.3h-1.3V55.1z M42.5,61.6h1.7v-0.1l-1.7-3.2c0.5-0.2,0.8-0.5,1.1-0.9c0.2-0.4,0.3-0.8,0.3-1.3
		c0-0.8-0.3-1.3-0.8-1.7c-0.5-0.4-1.2-0.6-2.1-0.6h-2.9v7.8h1.6v-2.9H41L42.5,61.6z M33.3,55.8l1,2.9h-2L33.3,55.8z M35.3,61.6H37
		l-2.9-7.8h-1.5l-2.9,7.8h1.7l0.5-1.6h2.8L35.3,61.6z M25.4,55.1h1.5c0.4,0,0.7,0.1,0.9,0.4c0.2,0.2,0.3,0.5,0.3,0.9
		c0,0.4-0.1,0.7-0.3,0.9c-0.2,0.2-0.5,0.3-1,0.3h-1.4V55.1z M26.8,58.9c0.9,0,1.7-0.2,2.2-0.7c0.5-0.4,0.8-1,0.8-1.8
		c0-0.5-0.1-1-0.4-1.4c-0.2-0.4-0.6-0.7-1-0.9c-0.4-0.2-1-0.3-1.6-0.3h-3.1v7.8h1.6v-2.8H26.8z"/>
	<path style="clip-path:url(#SVGID_00000152227985122587576390000010248136487022067866_);fill:#4A4A49;" d="M78.5,43.5v7.8h1.6
		v-2.1l-0.2-3.7l2.1,5.8h1.1l2.1-5.8l-0.2,3.7v2.1h1.6v-7.8h-2.1l-2,5.7l-2-5.7H78.5z M75.2,43.5v5.2c0,1-0.5,1.4-1.4,1.4
		c-0.4,0-0.8-0.1-1-0.4c-0.2-0.2-0.4-0.6-0.4-1.1v-5.2h-1.6v5.2c0,0.8,0.3,1.5,0.8,2c0.5,0.5,1.3,0.7,2.2,0.7c0.9,0,1.7-0.2,2.2-0.7
		c0.5-0.5,0.8-1.2,0.8-2v-5.2H75.2z M69.6,43.5h-6.4v1.3h2.4v6.5h1.6v-6.5h2.4V43.5z M59.5,45.5l1,2.9h-2L59.5,45.5z M61.5,51.3h1.7
		l-2.9-7.8h-1.5l-2.9,7.8h1.7l0.5-1.6h2.8L61.5,51.3z M51.7,43.5H50v7.8h5V50h-3.4V43.5z M46.9,47.6c0,0.8-0.2,1.4-0.4,1.9
		c-0.3,0.4-0.7,0.6-1.2,0.6c-0.6,0-1-0.2-1.3-0.7c-0.3-0.4-0.4-1.1-0.4-1.9v-0.4c0-0.8,0.2-1.4,0.4-1.9c0.3-0.4,0.7-0.6,1.3-0.6
		c0.5,0,1,0.2,1.3,0.6c0.3,0.4,0.4,1.1,0.4,1.9V47.6z M48.5,47.2c0-0.8-0.1-1.4-0.4-2c-0.3-0.6-0.7-1-1.2-1.4
		c-0.5-0.3-1.1-0.5-1.7-0.5s-1.2,0.2-1.7,0.5c-0.5,0.3-0.9,0.8-1.2,1.4c-0.3,0.6-0.4,1.3-0.4,2v0.4c0,0.8,0.1,1.4,0.4,2
		c0.3,0.6,0.7,1,1.2,1.3c0.5,0.3,1.1,0.5,1.7,0.5c0.7,0,1.2-0.2,1.7-0.5c0.5-0.3,0.9-0.8,1.2-1.3c0.3-0.6,0.4-1.3,0.4-2V47.2z
		 M36.3,44.8h1.3c0.4,0,0.8,0.1,1,0.3c0.2,0.2,0.3,0.5,0.3,0.9c0,0.4-0.1,0.6-0.3,0.9c-0.2,0.2-0.5,0.3-0.9,0.3h-1.3V44.8z M39,51.3
		h1.7v-0.1L39,48c0.5-0.2,0.8-0.5,1.1-0.9c0.2-0.4,0.3-0.8,0.3-1.3c0-0.8-0.3-1.3-0.8-1.7c-0.5-0.4-1.2-0.6-2.1-0.6h-2.9v7.8h1.6
		v-2.9h1.3L39,51.3z M33.3,43.5H27v1.3h2.4v6.5h1.6v-6.5h2.4V43.5z M25.5,46.7h-3.1v-1.9H26v-1.3h-5.2v7.8H26V50h-3.6v-2.1h3.1V46.7
		z M14.9,44.8h1.5c0.4,0,0.7,0.1,0.9,0.4c0.2,0.2,0.3,0.5,0.3,0.9c0,0.4-0.1,0.7-0.3,0.9c-0.2,0.2-0.5,0.3-1,0.3h-1.4V44.8z
		 M16.3,48.6c0.9,0,1.7-0.2,2.2-0.7c0.5-0.4,0.8-1,0.8-1.8c0-0.5-0.1-1-0.4-1.4c-0.2-0.4-0.6-0.7-1-0.9c-0.4-0.2-1-0.3-1.6-0.3h-3.1
		v7.8h1.6v-2.8H16.3z"/>
	<path style="clip-path:url(#SVGID_00000152227985122587576390000010248136487022067866_);fill:#4A4A49;" d="M75,33.2h-1.6v5.2
		l-3.1-5.2h-1.6V41h1.6v-5.2l3.1,5.2H75V33.2z M66.7,36.3h-3.1v-1.9h3.6v-1.3H62V41h5.2v-1.3h-3.6v-2.1h3.1V36.3z M56.2,34.5h1.1
		c0.4,0,0.8,0.1,1,0.2c0.2,0.2,0.3,0.4,0.3,0.8c0,0.6-0.4,1-1.2,1h-1.2V34.5z M57.7,37.6c0.7,0,1.1,0.4,1.1,1.1
		c0,0.3-0.1,0.6-0.3,0.8c-0.2,0.2-0.5,0.3-0.9,0.3h-1.4v-2.1H57.7z M57.6,41c0.9,0,1.6-0.2,2.1-0.6c0.5-0.4,0.7-1,0.7-1.7
		c0-0.4-0.1-0.8-0.3-1.1c-0.2-0.3-0.5-0.5-0.9-0.6c0.4-0.1,0.6-0.4,0.8-0.6c0.2-0.3,0.3-0.6,0.3-1c0-0.7-0.2-1.2-0.7-1.6
		s-1.2-0.5-2.2-0.5h-2.7V41H57.6z M49.8,35.1l1,2.9h-2L49.8,35.1z M51.8,41h1.7l-2.9-7.8H49L46.1,41h1.7l0.5-1.6h2.8L51.8,41z
		 M41,34.5h1.3c0.4,0,0.8,0.1,1,0.3c0.2,0.2,0.3,0.5,0.3,0.9c0,0.4-0.1,0.6-0.3,0.9c-0.2,0.2-0.5,0.3-0.9,0.3H41V34.5z M43.7,41h1.7
		v-0.1l-1.7-3.2c0.5-0.2,0.8-0.5,1.1-0.9c0.2-0.4,0.3-0.8,0.3-1.3c0-0.8-0.3-1.3-0.8-1.7c-0.5-0.4-1.2-0.6-2.1-0.6h-2.9V41H41v-2.9
		h1.3L43.7,41z M34.6,35.1l1,2.9h-2L34.6,35.1z M36.5,41h1.7l-2.9-7.8h-1.5L30.9,41h1.7l0.5-1.6H36L36.5,41z M26.6,34.5h1.5
		c0.4,0,0.7,0.1,0.9,0.4c0.2,0.2,0.3,0.5,0.3,0.9c0,0.4-0.1,0.7-0.3,0.9c-0.2,0.2-0.5,0.3-1,0.3h-1.4V34.5z M28.1,38.2
		c0.9,0,1.7-0.2,2.2-0.7c0.5-0.4,0.8-1,0.8-1.8c0-0.5-0.1-1-0.4-1.4c-0.2-0.4-0.6-0.7-1-0.9c-0.4-0.2-1-0.3-1.6-0.3H25V41h1.6v-2.8
		H28.1z"/>
	<path style="clip-path:url(#SVGID_00000152227985122587576390000010248136487022067866_);fill:#7C7B7B;" d="M61.4,18.5L60,17.7
		l-6.9,11.1l1.4,0.7L61.4,18.5z M59.5,27.2c0-0.4,0.1-0.7,0.3-1c0.2-0.2,0.5-0.4,0.9-0.4c0.4,0,0.7,0.1,0.9,0.4
		c0.2,0.2,0.3,0.6,0.3,0.9v0.7c0,0.9-0.4,1.3-1.2,1.3c-0.4,0-0.6-0.1-0.9-0.4c-0.2-0.3-0.4-0.6-0.4-0.9V27.2z M57.6,27.9
		c0,0.9,0.3,1.6,0.8,2.1c0.6,0.5,1.3,0.8,2.3,0.8c0.9,0,1.7-0.3,2.2-0.8c0.6-0.5,0.8-1.2,0.8-2.1v-0.7c0-0.9-0.3-1.7-0.9-2.2
		c-0.6-0.5-1.3-0.8-2.2-0.8c-0.9,0-1.7,0.3-2.2,0.8c-0.6,0.5-0.9,1.2-0.9,2.1V27.9z M52.7,19.2c0-0.4,0.1-0.8,0.3-1
		c0.2-0.2,0.5-0.4,0.9-0.4c0.4,0,0.7,0.1,0.9,0.4c0.2,0.2,0.3,0.6,0.3,0.9v0.7c0,0.4-0.1,0.7-0.3,1c-0.2,0.2-0.5,0.4-0.9,0.4
		c-0.4,0-0.7-0.1-0.9-0.4c-0.2-0.2-0.3-0.6-0.3-0.9V19.2z M50.8,19.9c0,0.9,0.3,1.6,0.9,2.2c0.6,0.5,1.3,0.8,2.2,0.8
		c0.9,0,1.7-0.3,2.2-0.8c0.6-0.5,0.8-1.2,0.8-2.1v-0.7c0-0.9-0.3-1.6-0.8-2.2c-0.6-0.5-1.3-0.8-2.2-0.8c-0.9,0-1.7,0.3-2.2,0.8
		c-0.6,0.5-0.8,1.3-0.8,2.1V19.9z M45.7,23.9c0,1.5-0.3,2.6-0.8,3.4c-0.5,0.8-1.3,1.2-2.3,1.2c-1,0-1.8-0.4-2.3-1.2
		c-0.5-0.8-0.8-1.9-0.8-3.4v-0.7c0-1.5,0.3-2.6,0.8-3.4s1.3-1.1,2.3-1.1c1,0,1.8,0.4,2.3,1.2c0.5,0.8,0.8,1.9,0.8,3.4V23.9z
		 M48.7,23.2c0-1.4-0.3-2.6-0.8-3.7c-0.5-1.1-1.2-1.9-2.1-2.5c-0.9-0.6-2-0.9-3.2-0.9c-1.2,0-2.2,0.3-3.2,0.9
		c-0.9,0.6-1.6,1.4-2.1,2.5c-0.5,1.1-0.8,2.3-0.8,3.7V24c0,1.4,0.3,2.6,0.8,3.6c0.5,1.1,1.2,1.9,2.1,2.4c0.9,0.6,2,0.8,3.2,0.8
		c1.2,0,2.2-0.3,3.2-0.9c0.9-0.6,1.6-1.4,2.1-2.4c0.5-1.1,0.7-2.3,0.7-3.7V23.2z"/>
</g>
</svg>
