<?xml version="1.0" encoding="utf-8"?>
<!-- Generator: Adobe Illustrator 28.0.0, SVG Export Plug-In . SVG Version: 6.00 Build 0)  -->
<svg version="1.1" id="Livello_1" xmlns="http://www.w3.org/2000/svg" xmlns:xlink="http://www.w3.org/1999/xlink" x="0px" y="0px"
	 viewBox="0 0 100 100" style="enable-background:new 0 0 100 100;" xml:space="preserve">
<style type="text/css">
	.st0{clip-path:url(#SVGID_00000018209881493847075710000007822357365528406408_);fill:none;stroke:#7C7B7B;stroke-width:5;}
	.st1{clip-path:url(#SVGID_00000018209881493847075710000007822357365528406408_);fill:#4A4A49;}
	
		.st2{clip-path:url(#SVGID_00000018209881493847075710000007822357365528406408_);fill:none;stroke:#7C7B7B;stroke-width:2;stroke-linecap:round;}
</style>
<g>
	<defs>
		<rect id="SVGID_1_" width="100" height="100"/>
	</defs>
	<clipPath id="SVGID_00000076581366728048721970000017507022459123381410_">
		<use xlink:href="#SVGID_1_"  style="overflow:visible;"/>
	</clipPath>
	
		<circle style="clip-path:url(#SVGID_00000076581366728048721970000017507022459123381410_);fill:none;stroke:#7C7B7B;stroke-width:5;" cx="50" cy="50" r="47.5"/>
	<path style="clip-path:url(#SVGID_00000076581366728048721970000017507022459123381410_);fill:#4A4A49;" d="M75.3,56.4H73v7.5
		l-4.6-7.5H66v11.4h2.3v-7.5l4.6,7.5h2.3V56.4z M63.3,61h-4.5v-2.7h5.3v-1.9h-7.6v11.4h7.6v-1.9h-5.3v-3h4.5V61z M53.8,61h-4.5v-2.7
		h5.3v-1.9h-7.6v11.4h7.6v-1.9h-5.3v-3h4.5V61z M38.5,58.3h1.9c0.6,0,1.1,0.2,1.4,0.5s0.5,0.7,0.5,1.3c0,0.5-0.2,0.9-0.5,1.2
		c-0.3,0.3-0.8,0.4-1.4,0.4h-1.9V58.3z M42.5,67.8H45v-0.1L42.5,63c0.7-0.3,1.2-0.7,1.5-1.2c0.3-0.5,0.5-1.2,0.5-1.9
		c0-1.1-0.4-1.9-1.1-2.5c-0.7-0.6-1.8-0.9-3.1-0.9h-4.2v11.4h2.3v-4.2h1.9L42.5,67.8z M33.7,61.8h-4.5v1.7h2.1v2
		c-0.4,0.4-1,0.6-1.9,0.6c-0.9,0-1.5-0.3-2-0.9c-0.5-0.6-0.7-1.5-0.7-2.7v-0.7c0-1.2,0.2-2.1,0.6-2.7c0.4-0.6,1-0.9,1.8-0.9
		c0.6,0,1.1,0.2,1.5,0.5c0.4,0.3,0.6,0.8,0.7,1.4h2.3c-0.1-1.2-0.6-2.2-1.4-2.8c-0.8-0.6-1.8-1-3.2-1c-1,0-1.8,0.2-2.5,0.7
		c-0.7,0.4-1.3,1.1-1.7,1.9c-0.4,0.8-0.6,1.8-0.6,2.9v0.8c0,1.1,0.2,2.1,0.6,2.9c0.4,0.8,1,1.4,1.7,1.9c0.7,0.4,1.6,0.6,2.6,0.6
		c0.9,0,1.8-0.1,2.6-0.4c0.8-0.3,1.4-0.7,1.8-1.2V61.8z"/>
	<path style="clip-path:url(#SVGID_00000076581366728048721970000017507022459123381410_);fill:#4A4A49;" d="M83.4,44.3l1.4,4.3H82
		L83.4,44.3z M86.2,52.8h2.5l-4.3-11.4h-2.2l-4.2,11.4h2.5l0.8-2.3h4.1L86.2,52.8z M72,41.4h-2.3v11.4H77v-1.9h-5V41.4z M64.8,41.4
		V49c0,1.4-0.7,2.1-2,2.1c-0.6,0-1.1-0.2-1.5-0.5s-0.5-0.9-0.5-1.6v-7.5h-2.3V49c0,1.2,0.4,2.2,1.2,2.9c0.8,0.7,1.8,1.1,3.2,1.1
		c1.3,0,2.4-0.4,3.2-1.1c0.8-0.7,1.2-1.7,1.2-3v-7.5H64.8z M44,41.4v11.4h2.3v-3.1l-0.2-5.4l3.1,8.5h1.6l3.1-8.5l-0.2,5.4v3.1h2.4
		V41.4h-3.1l-2.9,8.2L47,41.4H44z M35.5,43.3h1.9c0.6,0,1.1,0.2,1.4,0.5c0.3,0.3,0.5,0.7,0.5,1.3c0,0.5-0.2,0.9-0.5,1.2
		c-0.3,0.3-0.8,0.5-1.4,0.5h-1.9V43.3z M39.5,52.8h2.5v-0.1L39.6,48c0.7-0.3,1.2-0.7,1.5-1.2c0.3-0.5,0.5-1.2,0.5-1.9
		c0-1.1-0.4-1.9-1.1-2.5c-0.7-0.6-1.8-0.9-3.1-0.9h-4.2v11.4h2.3v-4.2h1.9L39.5,52.8z M28.6,47.4c0,1.2-0.2,2.1-0.6,2.7
		c-0.4,0.6-1,0.9-1.8,0.9c-0.8,0-1.4-0.3-1.8-1c-0.4-0.6-0.6-1.5-0.6-2.7v-0.6c0-1.2,0.2-2.1,0.6-2.7s1-0.9,1.8-0.9
		c0.8,0,1.4,0.3,1.8,0.9c0.4,0.6,0.6,1.5,0.6,2.7V47.4z M30.9,46.8c0-1.1-0.2-2.1-0.6-3c-0.4-0.9-1-1.5-1.7-2
		c-0.7-0.5-1.6-0.7-2.5-0.7s-1.8,0.2-2.5,0.7c-0.7,0.5-1.3,1.1-1.7,2c-0.4,0.9-0.6,1.8-0.6,3v0.6c0,1.1,0.2,2.1,0.6,2.9
		s1,1.5,1.7,1.9c0.7,0.5,1.6,0.7,2.5,0.7c1,0,1.8-0.2,2.5-0.7s1.3-1.1,1.7-2c0.4-0.8,0.6-1.8,0.6-2.9V46.8z M19.1,46.2h-4.5v-2.9
		h5.1v-1.9h-7.4v11.4h2.3v-4.6h4.5V46.2z"/>
	
		<path style="clip-path:url(#SVGID_00000076581366728048721970000017507022459123381410_);fill:none;stroke:#7C7B7B;stroke-width:2;stroke-linecap:round;" d="
		M57,15.2c-2.3-2.8-6.9-3.5-12.6,1.1c-5.7,4.6-5.9,13.9-5.9,13.9s9.1,1.7,14.8-2.9C59.1,22.6,59.3,18,57,15.2z"/>
	
		<path style="clip-path:url(#SVGID_00000076581366728048721970000017507022459123381410_);fill:none;stroke:#7C7B7B;stroke-width:2;stroke-linecap:round;" d="
		M38.9,29.8c0,0,17.7-10.6,22.6-24"/>
	
		<path style="clip-path:url(#SVGID_00000076581366728048721970000017507022459123381410_);fill:none;stroke:#7C7B7B;stroke-width:2;stroke-linecap:round;" d="
		M53,18.4c0,0-2.5-2-5.8,0"/>
	
		<path style="clip-path:url(#SVGID_00000076581366728048721970000017507022459123381410_);fill:none;stroke:#7C7B7B;stroke-width:2;stroke-linecap:round;" d="
		M51.3,24.6c0,0,1.8-2.9,0.7-4.6"/>
	
		<path style="clip-path:url(#SVGID_00000076581366728048721970000017507022459123381410_);fill:none;stroke:#7C7B7B;stroke-width:2;stroke-linecap:round;" d="
		M47.6,22.8c0,0-0.6-1.2-3.7,0.2"/>
</g>
</svg>
