<svg width="53" height="54" viewBox="0 0 53 54" fill="none" xmlns="http://www.w3.org/2000/svg">
<g id="Group 39469">
<path id="Vector" d="M29.8953 1.19122H23.0889V12.9085H29.8953V1.19122Z" stroke="#4A4A49" stroke-width="2.11051"/>
<path id="Vector_2" d="M6.54144 26.8844V26.8843C6.54144 15.8686 15.4709 6.9331 26.4926 6.9331C37.5082 6.9331 46.4437 15.8625 46.4437 26.8843C46.4437 37.8999 37.5143 46.8354 26.4926 46.8354C15.4707 46.8354 6.53529 37.8997 6.54144 26.8844Z" fill="white" stroke="#4A4A49" stroke-width="0.661001"/>
<path id="Vector_3" d="M45.2382 34.6375C49.5249 24.2887 44.6106 12.4243 34.2618 8.13754C23.913 3.85082 12.0485 8.76512 7.76179 19.114C3.47507 29.4628 8.38939 41.3272 18.7382 45.614C29.0871 49.9007 40.9515 44.9864 45.2382 34.6375Z" stroke="#4A4A49" stroke-width="2.73992"/>
<path id="Vector_4" d="M39.5872 26.8779C39.5872 34.1086 33.7233 39.9726 26.4926 39.9726C19.2557 39.9726 13.3979 34.1087 13.3979 26.8779C13.3979 19.6472 19.2618 13.7833 26.4926 13.7833C33.7233 13.7833 39.5872 19.6472 39.5872 26.8779Z" fill="white" stroke="#4A4A49" stroke-width="0.661001"/>
<path id="Vector_5" d="M33.5565 38.3208C39.8641 34.423 41.8175 26.1499 37.9197 19.8424C34.0219 13.5348 25.7488 11.5814 19.4413 15.4792C13.1338 19.377 11.1803 27.6501 15.0781 33.9576C18.9759 40.2651 27.249 42.2186 33.5565 38.3208Z" stroke="#4A4A49" stroke-width="1.81425"/>
<path id="Vector_6" d="M19.7788 26.8848V26.8842C19.7788 23.1691 22.784 20.1643 26.4924 20.1643C30.2007 20.1643 33.2061 23.1752 33.2061 26.8842C33.2061 30.5929 30.2011 33.5979 26.4924 33.5979C22.7774 33.5979 19.7728 30.5866 19.7788 26.8848Z" fill="white" stroke="#4A4A49" stroke-width="0.661001"/>
<path id="Vector_7" d="M26.4924 33.9284C30.3836 33.9284 33.5366 30.7754 33.5366 26.8842C33.5366 22.993 30.3836 19.8338 26.4924 19.8338C22.6012 19.8338 19.4483 22.9868 19.4483 26.8842C19.442 30.7691 22.595 33.9284 26.4924 33.9284Z" stroke="#4A4A49" stroke-width="0.951578"/>
</g>
</svg>
