<svg width="41" height="41" viewBox="0 0 41 41" fill="none" xmlns="http://www.w3.org/2000/svg">
<g id="Group 39464">
<g id="Group">
<path id="Vector" d="M20.6289 39.1319C30.9172 39.1319 39.2579 30.7911 39.2579 20.4971C39.2579 10.2089 30.9172 1.86816 20.6289 1.86816C10.3407 1.86816 2 10.2089 2 20.4971C1.99421 30.7854 10.3349 39.1319 20.6289 39.1319Z" stroke="#4A4A49" stroke-width="3.17502"/>
</g>
<g id="Group_2">
<path id="Vector_2" d="M11.4012 18.3272H11.0745V18.6539V24.2124V24.5391H11.4012H12.2301C12.9808 24.5391 13.5923 24.2889 14.0195 23.7636L14.0208 23.762C14.4367 23.2438 14.6254 22.5361 14.6376 21.6784L14.6376 21.6784V21.6737V21.2332C14.6376 20.35 14.4574 19.6197 14.0369 19.1027C13.6097 18.5775 12.9982 18.3272 12.2475 18.3272H11.4012ZM10.0122 25.2652V17.5895H12.2475C12.9276 17.5895 13.5256 17.7401 14.0506 18.0393C14.5735 18.3374 14.9773 18.7603 15.2746 19.3177C15.571 19.8735 15.7231 20.5093 15.7231 21.239V21.6215C15.7231 22.3474 15.576 22.9833 15.2857 23.5323C14.9955 24.081 14.5926 24.4993 14.0669 24.8045C13.5407 25.1041 12.9422 25.2597 12.2693 25.2652H10.0122Z" fill="#4A4A49" stroke="#4A4A49" stroke-width="0.653391"/>
<path id="Vector_3" d="M18.9283 24.9314L18.9275 24.9309C18.4455 24.6354 18.0636 24.2093 17.7934 23.6477C17.5223 23.0843 17.3792 22.4208 17.3736 21.6609V21.2506C17.3736 20.4715 17.5117 19.7969 17.7823 19.2292C18.0535 18.6603 18.4304 18.2292 18.9112 17.9291C19.3943 17.6332 19.9541 17.4794 20.5883 17.4794C21.2281 17.4794 21.7822 17.6331 22.2655 17.9291C22.7472 18.2297 23.1234 18.6553 23.3939 19.2281L23.3944 19.2292C23.6657 19.7984 23.8089 20.4734 23.8089 21.2506V21.6158V21.8896C23.7802 22.5576 23.6452 23.1366 23.4112 23.6326C23.146 24.1949 22.7692 24.6261 22.2876 24.9264C21.8055 25.2271 21.2465 25.3812 20.6057 25.3812C19.9699 25.3812 19.4162 25.2324 18.9283 24.9314ZM18.459 21.2078H18.459V21.21V21.6158C18.459 22.5015 18.6207 23.2352 18.9834 23.7793C19.3607 24.3452 19.918 24.6261 20.6057 24.6261C21.28 24.6261 21.831 24.3527 22.2033 23.8049C22.5624 23.2763 22.7232 22.5405 22.7292 21.6469H22.7292V21.6448V21.239C22.7292 20.3332 22.5688 19.5952 22.2017 19.065C21.8253 18.5213 21.2767 18.2403 20.5941 18.2403C19.9198 18.2403 19.3711 18.5135 18.9935 19.0518C18.6255 19.5766 18.465 20.3153 18.459 21.2078Z" fill="#4A4A49" stroke="#4A4A49" stroke-width="0.653391"/>
<path id="Vector_4" d="M31.5609 23.1307C31.4526 23.7881 31.1695 24.2967 30.7213 24.684C30.1973 25.1368 29.4914 25.3754 28.5758 25.3754C27.5912 25.3754 26.8468 25.048 26.3028 24.4117C25.7542 23.77 25.4654 22.8693 25.4654 21.6621V21.1521C25.4654 20.3898 25.5979 19.7316 25.8578 19.1746C26.1182 18.6166 26.4779 18.1991 26.9444 17.912L26.9444 17.912L26.9458 17.9112C27.4105 17.6221 27.9638 17.4678 28.599 17.4678C29.4987 17.4678 30.1883 17.71 30.7086 18.1582C31.1468 18.5449 31.4385 19.067 31.5673 19.7531H30.5179C30.4446 19.3077 30.2822 18.9356 29.9999 18.6714C29.6596 18.3474 29.1682 18.2171 28.599 18.2171C27.9355 18.2171 27.4051 18.4589 27.0451 18.9701L27.0451 18.9701L27.0434 18.9726C26.7039 19.4646 26.5568 20.1815 26.5508 21.0629H26.5508V21.0651V21.6969C26.5508 22.6156 26.6906 23.3543 27.0155 23.852C27.3612 24.3816 27.9061 24.6203 28.5816 24.6203C29.1517 24.6203 29.6474 24.4896 29.9928 24.1673C30.2703 23.9083 30.4343 23.5547 30.5065 23.1307H31.5609Z" fill="#4A4A49" stroke="#4A4A49" stroke-width="0.653391"/>
</g>
</g>
</svg>
