<svg width="37" height="51" viewBox="0 0 37 51" fill="none" xmlns="http://www.w3.org/2000/svg">
<g id="Group 39466">
<path id="Vector" d="M18.3418 30.6281V3" stroke="#4A4A49" stroke-width="3.01695" stroke-linecap="round"/>
<path id="Vector_2" d="M10.1318 11.8369L18.3419 3L26.5588 11.8369" stroke="#4A4A49" stroke-width="3.01695" stroke-linecap="round"/>
<g id="Group">
<path id="Vector_3" d="M30.3194 48.4654V48.8061H30.66H36.4923V50.4617H28.0914V37.0326H30.3194V48.4654ZM23.0359 44.1133V44.1117V43.4236C23.0359 41.9129 22.7659 40.7085 22.1785 39.8574L22.1777 39.8563C21.5795 38.9974 20.7164 38.5588 19.6292 38.5588C18.5433 38.5588 17.6872 38.9895 17.0885 39.8415C16.4994 40.6798 16.2295 41.8786 16.2226 43.3743V43.3759V44.064C16.2226 45.5373 16.4939 46.7305 17.077 47.6051C17.6749 48.5021 18.5472 48.9492 19.6497 48.9492C20.7293 48.9492 21.5873 48.5178 22.1792 47.6495C22.7589 46.8059 23.029 45.6094 23.0359 44.1133ZM25.298 43.4372V43.7779H25.3048V44.0708C25.3048 45.4204 25.0667 46.5823 24.601 47.5785L24.6002 47.5802C24.1428 48.5722 23.4779 49.3302 22.6253 49.8585C21.7634 50.3882 20.7838 50.6593 19.6565 50.6593C18.5429 50.6593 17.5623 50.3883 16.6992 49.864C15.8409 49.3426 15.1751 48.591 14.6967 47.6023C14.2181 46.6061 13.974 45.4586 13.9674 44.1448V43.444C13.9674 42.096 14.2116 40.9277 14.684 39.9244C15.1626 38.9221 15.829 38.1636 16.6813 37.6357C17.536 37.1063 18.5153 36.8351 19.6361 36.8351C20.7502 36.8351 21.7363 37.1064 22.5908 37.6357C23.4434 38.1638 24.1093 38.9222 24.5809 39.9236C25.0536 40.9271 25.298 42.0958 25.298 43.4372ZM6.07816 47.4048L6.40349 48.4925L6.73075 47.4054L9.85322 37.0326H12.357L7.6818 50.4617H5.13445L0.478667 37.0326H2.97585L6.07816 47.4048Z" fill="#4A4A49" stroke="#4A4A49" stroke-width="0.681334"/>
</g>
</g>
</svg>
