<svg width="32" height="76" viewBox="0 0 32 76" fill="none" xmlns="http://www.w3.org/2000/svg">
<g id="Group 39470">
<g id="Group">
<path id="Vector" d="M9.02175 48.2798L9.01801 48.282C4.80329 50.7182 2.18258 55.2558 2.18258 60.1282C2.18258 67.6773 8.32307 73.8085 15.8628 73.8085C23.4029 73.8085 29.5428 67.6771 29.552 60.1198V60.1192C29.552 55.2549 26.9216 50.718 22.7083 48.2733L22.7039 48.2709L22.5193 48.1665V5.6939C22.5193 3.95933 21.1093 2.54935 19.3747 2.54935H12.3509C10.6163 2.54935 9.20636 3.95933 9.20636 5.6939V13.6584V14.1063H9.6543H13.6589V14.8499H9.6543H9.20636V15.2978V18.9262V19.3742H9.6543H15.4149V20.1177H9.6543H9.20636V20.5657V24.1941V24.642H9.6543H13.6589V25.3856H9.6543H9.20636V25.8335V29.4619V29.9098H9.6543H15.4149V30.6534H9.6543H9.20636V31.1013V48.1755L9.02175 48.2798ZM23.2539 47.5051V47.7539L23.4651 47.8854C27.6795 50.5096 30.2777 55.1592 30.2777 60.1372C30.2777 68.0872 23.8128 74.552 15.8628 74.552C7.91281 74.552 1.44795 68.0872 1.44795 60.1372C1.44795 55.1592 4.04616 50.5096 8.26055 47.8854L8.47172 47.7539V47.5051V5.70287C8.47172 3.55824 10.2063 1.82368 12.3509 1.82368H19.3747C21.511 1.82368 23.2539 3.55884 23.2539 5.70287V47.5051Z" fill="#4A4A49" stroke="#4A4A49" strokeWidth="0.89589"/>
<path id="Vector_2" d="M15.8628 73.3605C8.57027 73.3605 2.63053 67.4297 2.63053 60.1282C2.63053 55.4158 5.16587 51.026 9.24218 48.6698L9.6543 48.4369V31.1013H15.8628V29.4619H9.6543V25.8335H14.1069V24.1941H9.6543V20.5657H15.8628V18.9262H9.6543V15.2978H14.1069V13.6584H9.6543V5.6939C9.6543 4.20673 10.8637 2.99729 12.3509 2.99729H19.3747C20.8619 2.99729 22.0713 4.20673 22.0713 5.6939V48.4279L22.4835 48.6608C26.5598 51.026 29.1041 55.4158 29.1041 60.1192C29.0951 67.4297 23.1554 73.3605 15.8628 73.3605ZM23.7019 47.5051V5.70287C23.7019 3.31084 21.7578 1.37573 19.3747 1.37573H12.3509C9.95889 1.37573 8.02378 3.31084 8.02378 5.70287V47.5051C3.67871 50.2107 1 55.0037 1 60.1372C1 68.3346 7.66542 75 15.8628 75C24.0602 75 30.7257 68.3346 30.7257 60.1372C30.7257 55.0037 28.0469 50.2107 23.7019 47.5051Z" stroke="#4A4A49" strokeWidth="1.2546" stroke-miterlimit="10"/>
<path id="Vector_3" d="M18.6218 51.3072V50.9901V38.4745C18.6218 38.0231 18.249 37.6503 17.7976 37.6503H13.9184C13.4649 37.6503 13.0942 38.0162 13.0942 38.4745V50.9811V51.2981L12.7952 51.4036C9.11341 52.702 6.50883 56.2898 6.68812 60.4581L18.6218 51.3072ZM18.6218 51.3072L18.9208 51.4126M18.6218 51.3072L18.9208 51.4126M18.9208 51.4126C22.483 52.6683 25.0364 56.0685 25.0364 60.0565C25.0364 65.2668 20.6887 69.4612 15.4259 69.222L15.4258 69.222M18.9208 51.4126L15.4258 69.222M15.4258 69.222C10.713 69.0085 6.89319 65.1724 6.68813 60.4583L15.4258 69.222Z" fill="#4A4A49" stroke="#4A4A49" strokeWidth="0.89589"/>
</g>
</g>
</svg>
