<svg width="38" height="41" viewBox="0 0 38 41" fill="none" xmlns="http://www.w3.org/2000/svg">
<g id="Group 39465">
<g id="Group">
<path id="Vector" d="M7.41222 19.1073C10.4003 19.1073 12.8244 16.6832 12.8244 13.6951C12.8244 10.707 10.4003 8.2829 7.41222 8.2829C4.42412 8.2829 2 10.7021 2 13.6951C2 16.6832 4.42412 19.1073 7.41222 19.1073Z" stroke="#4A4A49" strokeWidth="2.60212" strokeLinecap="round"/>
<path id="Vector_2" d="M19.0577 19.1073C22.0458 19.1073 24.47 16.6832 24.47 13.6951C24.47 10.707 22.0458 8.2829 19.0577 8.2829C16.0696 8.2829 13.6455 10.707 13.6455 13.6951C13.6455 16.6832 16.0647 19.1073 19.0577 19.1073Z" stroke="#4A4A49" strokeWidth="2.60212" strokeLinecap="round"/>
<path id="Vector_3" d="M30.6984 19.1073C33.6865 19.1073 36.1106 16.6832 36.1106 13.6951C36.1106 10.707 33.6865 8.2829 30.6984 8.2829C27.7103 8.2829 25.2861 10.707 25.2861 13.6951C25.2861 16.6832 27.7103 19.1073 30.6984 19.1073Z" stroke="#4A4A49" strokeWidth="2.60212" strokeLinecap="round"/>
<path id="Vector_4" d="M13.3536 29.0858C16.3417 29.0858 18.7659 26.6617 18.7659 23.6736C18.7659 20.6855 16.3417 18.2614 13.3536 18.2614C10.3655 18.2614 7.94141 20.6855 7.94141 23.6736C7.94141 26.6617 10.3655 29.0858 13.3536 29.0858Z" stroke="#4A4A49" strokeWidth="2.60212" strokeLinecap="round"/>
<path id="Vector_5" d="M24.9943 29.0858C27.9824 29.0858 30.4065 26.6617 30.4065 23.6736C30.4065 20.6855 27.9824 18.2614 24.9943 18.2614C22.0062 18.2614 19.582 20.6855 19.582 23.6736C19.587 26.6617 22.0062 29.0858 24.9943 29.0858Z" stroke="#4A4A49" strokeWidth="2.60212" strokeLinecap="round"/>
<path id="Vector_6" d="M19.1759 39C22.164 39 24.5881 36.5759 24.5881 33.5878C24.5881 30.5997 22.164 28.1755 19.1759 28.1755C16.1878 28.1755 13.7637 30.5997 13.7637 33.5878C13.7637 36.5808 16.1878 39 19.1759 39Z" stroke="#4A4A49" strokeWidth="2.60212" strokeLinecap="round"/>
</g>
<path id="Vector_7" d="M19.1768 8.19882V2" stroke="#4A4A49" strokeWidth="2.60212" strokeLinecap="round"/>
<path id="Vector_8" d="M16.3223 2H22.0264" stroke="#4A4A49" strokeWidth="2.60212" strokeLinecap="round"/>
</g>
</svg>
