<svg width="40" height="47" viewBox="0 0 40 47" fill="none" xmlns="http://www.w3.org/2000/svg">
<g id="Group">
<path id="Vector" d="M4.73372 32.629C4.73372 32.629 3.90275 21.5583 14.239 21.3117C14.239 21.3117 15.7562 11.0237 26.9771 13.2807C26.9771 13.2807 27.8616 17.055 25.7011 19.4031C25.7011 19.4031 33.5873 17.8377 37.9995 25.7239C37.9995 25.7239 35.4798 29.1014 30.9925 28.6136C30.9925 28.6136 33.8339 35.2238 32.0219 41.3516C32.0219 41.3516 23.5942 42.0378 19.7234 38.3172C19.7234 38.3172 18.1044 43.362 15.7562 45.1741C15.7562 45.1741 8.79746 41.4535 11.0062 32.1412C11.0062 32.1358 8.30959 34.2427 4.73372 32.629Z" stroke="#4A4A49" stroke-width="2.24176" stroke-linecap="round" stroke-linejoin="round"/>
<path id="Vector_2" d="M30.8322 10.7932L21.4663 4.24722L15.9711 7.92497L12.1004 1.57739L2 11.8332C2 11.8332 18.5016 20.6201 30.8322 40.9334" stroke="#4A4A49" stroke-width="2.24176" stroke-linecap="round" stroke-linejoin="round"/>
</g>
</svg>
